<svg width="109" height="25" fill="none" xmlns="http://www.w3.org/2000/svg"><g clip-path="url('#clip0_1231_112704')"><path d="M52.834 8.531h6v12h4v-12h5l2-4h-17v4Zm36 0h-6v12h-4v-12h-7l2-4h15v4ZM37.343 4.531h-4.51v16h4v-4h8v-4h-8v-4h12v-4H37.339h.005Zm60 0h-4.51v16h4v-4h8.001v-4h-8v-4h12v-4H97.338h.005Z" fill="#fff"/><mask id="mask0_1231_112704" style="mask-type:luminance" maskUnits="userSpaceOnUse" x="0" y="0" width="25" height="25"><path d="M.822 12.535c0-6.627 5.373-12 12-12s12 5.373 12 12-5.372 12-12 12c-6.627 0-12-5.372-12-12Z" fill="#fff"/></mask><g mask="url('#mask0_1231_112704')" fill="#fff"><path opacity=".8" fill-rule="evenodd" clip-rule="evenodd" d="M17.245-5.445H8.4V3.4h.05L.488 16.67h-5.357v8.846h8.846v-2.95h17.692v2.95h8.846V16.67h-5.358L17.196 3.4h.05v-8.845ZM3.977 19.618h17.692V16.67h.05L13.756 3.4h-1.868L3.927 16.67h.05v2.948ZM11.348.452v-2.949h2.949v2.95h-2.949Zm13.27 19.166v2.949h2.948v-2.949h-2.948Zm-26.539 2.949v-2.949h2.949v2.949h-2.949Z"/><path opacity=".6" fill-rule="evenodd" clip-rule="evenodd" d="m16.732 25.654 7.66-4.423-4.422-7.661-.043.025.26-15.472 4.64-2.679-4.423-7.66-7.661 4.422 1.475 2.554-15.323 8.846-1.474-2.553-7.66 4.423 4.423 7.66 4.64-2.679 13.528 7.51-.043.026 4.423 7.66Zm-1.04-28.34L.37 6.159l1.474 2.554-.043.025 13.529 7.51 1.618-.934.26-15.472-.043.025-1.474-2.554Zm3.199 20.284 1.474 2.553-2.554 1.475-1.474-2.554 2.554-1.474ZM-2.183 7.634-3.658 5.08l-2.553 1.475 1.474 2.553 2.554-1.474ZM19.325-8.19l1.474 2.554-2.554 1.474-1.474-2.553 2.554-1.475Z"/><path opacity=".4" fill-rule="evenodd" clip-rule="evenodd" d="m-2.788 13.94 4.423 7.66 7.661-4.422-.025-.043 15.472.26 2.679 4.64 7.66-4.423-4.422-7.66-2.554 1.473L19.26-3.896l2.554-1.474-4.423-7.661-7.66 4.423 2.678 4.64L4.898 9.56l-.025-.044-7.661 4.424Zm28.34-1.04L16.706-2.422 14.152-.947l-.025-.044-7.51 13.53.934 1.618 15.472.26-.025-.043 2.554-1.474ZM5.268 16.099l-2.554 1.474L1.24 15.02l2.553-1.475L5.268 16.1Zm9.964-21.074 2.553-1.475-1.474-2.553-2.554 1.474 1.475 2.554Zm15.822 21.508-2.553 1.474-1.475-2.554 2.554-1.474 1.474 2.554Z"/><path opacity=".2" fill-rule="evenodd" clip-rule="evenodd" d="m1.627-1.535-4.422 7.66 7.66 4.423.025-.043 7.51 13.53-2.678 4.64 7.66 4.422 4.424-7.66-2.554-1.475L28.098 8.64l2.554 1.474 4.423-7.66-7.661-4.424-2.679 4.64-15.472.26.025-.043-7.66-4.423ZM16.7 22.488l8.846-15.322-2.554-1.474.025-.044-15.472.26-.935 1.62 7.512 13.528.025-.043 2.553 1.474ZM3.786 6.52 1.232 5.046l1.475-2.553L5.26 3.967 3.786 6.52ZM27.02 4.612l2.553 1.475 1.475-2.554-2.554-1.474-1.474 2.553ZM16.304 29.07l-2.554-1.474 1.474-2.554 2.554 1.474-1.474 2.554Z"/><path d="M.822 6.024v1.3c7.079-.605 15.543-2.306 24-6.318V.414C16.227 4.342 8.262 5.432 2.427 5.906c-.546.045-1.08.084-1.605.118Zm0 6.033c7.216-1.684 15.769-4.385 24-8.7v-.969c-8.392 4.214-16.98 6.561-24 7.866v1.803Zm0 8.511c6.379-3.209 15.263-8.059 24-14.1V4.573c-8.758 5.505-17.643 9.734-24 12.47v3.525Zm5.511 3.846h3.069c4.545-3.311 9.956-7.527 15.42-12.395v-.96a310.567 310.567 0 0 1-3.716 2.984c-5.218 4.13-10.457 7.663-14.773 10.371Zm-5.51 0h2.236c6.158-3.672 14.04-8.772 21.763-14.89v-.59c-9.927 7.34-18.29 12.362-24 15.468v.012Z"/><path fill-rule="evenodd" clip-rule="evenodd" d="M2.262 12.533c0 5.833 4.728 10.56 10.56 10.56 5.832 0 10.56-4.727 10.56-10.56 0-5.832-4.727-10.56-10.56-10.56-5.832 0-10.56 4.728-10.56 10.56Zm10.56-12c-6.627 0-12 5.373-12 12s5.373 12 12 12 12-5.372 12-12c0-6.627-5.372-12-12-12Z"/></g></g><defs><clipPath id="clip0_1231_112704"><path fill="#fff" transform="translate(.79 .5)" d="M0 0h108v24H0z"/></clipPath></defs></svg>