<svg width="52" height="23" fill="none" xmlns="http://www.w3.org/2000/svg"><g clip-path="url('#clip0_1231_112703')" fill="#fff"><path d="M38.382 6.906h-3.098v-.701c0-.713-.164-1.321-.503-1.836-.339-.514-.9-.771-1.683-.771-.421 0-.772.082-1.052.245a1.923 1.923 0 0 0-.643.62c-.152.257-.257.55-.316.877a6.078 6.078 0 0 0-.093 1.052c0 .42.011.783.047 1.075.035.292.105.55.222.76.116.21.303.397.526.561.233.164.549.327.958.491l2.373.947c.69.269 1.251.573 1.672.923.42.351.76.772.982 1.251.233.48.386 1.017.467 1.637.082.62.117 1.32.117 2.115 0 .912-.093 1.754-.269 2.537-.187.783-.479 1.45-.9 2-.42.56-.97.993-1.66 1.32-.69.327-1.531.491-2.525.491a5.38 5.38 0 0 1-2.092-.397 5.075 5.075 0 0 1-1.672-1.076 5.145 5.145 0 0 1-1.11-1.625 5.141 5.141 0 0 1-.41-2.034v-1.157h3.098v.97c0 .573.164 1.076.503 1.532.339.456.9.678 1.683.678.526 0 .936-.07 1.228-.222a1.54 1.54 0 0 0 .666-.643c.152-.27.245-.608.292-1.017.035-.41.059-.854.059-1.333 0-.561-.024-1.029-.059-1.391a2.161 2.161 0 0 0-.257-.877 1.546 1.546 0 0 0-.55-.55 7.543 7.543 0 0 0-.923-.455l-2.22-.912c-1.333-.55-2.234-1.274-2.69-2.174-.455-.9-.678-2.034-.678-3.39 0-.807.106-1.578.34-2.303.222-.725.549-1.356.982-1.882a4.643 4.643 0 0 1 1.66-1.263C31.52.664 32.302.512 33.19.512c.772 0 1.473.14 2.116.42.643.281 1.18.655 1.637 1.123.456.467.806.982 1.052 1.566.245.573.362 1.17.362 1.777v1.508h.024ZM47.36 22.313h-2.736L40.229.688h3.273l2.454 15.09h.059L48.517.689H51.8L47.36 22.313ZM24.47 3.48a5.067 5.067 0 0 0-.584-.982L21.83 7.034v10.181c0 .748-.21 1.298-.62 1.66a2.23 2.23 0 0 1-1.473.526c-.572 0-1.063-.175-1.472-.526-.421-.35-.62-.912-.62-1.66v-.97l-1.987 4.372c.163.21.35.398.55.573.49.432 1.051.76 1.67.982a5.5 5.5 0 0 0 1.871.339 5.5 5.5 0 0 0 1.87-.34 5.252 5.252 0 0 0 1.672-.981c.491-.433.9-.982 1.204-1.637.304-.654.456-1.438.456-2.326V5.795c-.023-.877-.175-1.649-.48-2.315ZM11.577 6.918H8.48v-.702c0-.713-.163-1.32-.502-1.835-.34-.514-.9-.772-1.684-.772-.42 0-.771.082-1.052.246a1.923 1.923 0 0 0-.643.62c-.152.257-.257.549-.315.876a6.073 6.073 0 0 0-.094 1.052c0 .421.012.784.047 1.076.035.292.105.55.222.76.117.21.304.397.526.56.234.164.55.328.959.492l2.373.947c.69.257 1.25.572 1.671.923.421.35.748.771.982 1.24.234.478.386 1.028.468 1.636.082.62.117 1.32.117 2.115 0 .912-.094 1.754-.27 2.537-.186.783-.478 1.45-.9 2-.42.56-.97.993-1.66 1.32-.689.327-1.53.491-2.524.491-.748 0-1.45-.129-2.093-.397a5.075 5.075 0 0 1-1.671-1.076 5.143 5.143 0 0 1-1.11-1.625 5.836 5.836 0 0 1-.375-2.045v-1.158H4.05v.97c0 .562.164 1.076.503 1.532.339.456.9.678 1.683.678.526 0 .935-.082 1.227-.222a1.54 1.54 0 0 0 .667-.643c.152-.269.245-.608.292-1.017.035-.41.058-.854.058-1.333 0-.56-.023-1.029-.058-1.403-.047-.362-.129-.654-.257-.876a1.546 1.546 0 0 0-.55-.55 7.56 7.56 0 0 0-.923-.456l-2.221-.911c-1.333-.526-2.233-1.251-2.689-2.151-.456-.9-.678-2.034-.678-3.39 0-.807.117-1.578.34-2.303.221-.725.549-1.356.981-1.882A4.643 4.643 0 0 1 4.084.979C4.75.664 5.534.512 6.422.512c.771 0 1.473.14 2.116.42.643.281 1.18.655 1.636 1.123.456.467.807.982 1.052 1.566.246.573.363 1.17.363 1.777v1.52h-.012ZM17.632 5.795c0-.748.21-1.297.62-1.66.42-.35.912-.526 1.473-.526.082 0 .163 0 .245.012L21.291.734A5.449 5.449 0 0 0 19.736.5a5.5 5.5 0 0 0-1.87.339c-.62.222-1.18.55-1.671.982-.491.432-.9.982-1.204 1.66-.304.666-.456 1.438-.456 2.314v11.421c0 .889.152 1.672.456 2.326a5.5 5.5 0 0 0 .654 1.076l1.987-4.372V5.796Z"/></g><defs><clipPath id="clip0_1231_112703"><path fill="#fff" transform="translate(.951 .5)" d="M0 0h50.839v22H0z"/></clipPath></defs></svg>