<svg width="575" height="150" fill="none" xmlns="http://www.w3.org/2000/svg"><path fill-rule="evenodd" clip-rule="evenodd" d="M515.444 15.677a1.76 1.76 0 0 0-1.76-1.759h-8.873a1.76 1.76 0 0 0-1.76 1.76c0 .97-.787 1.759-1.759 1.759H335.473a3 3 0 0 0-3 3v109.978a3 3 0 0 0 3 3h166.631c.523 0 .947.424.947.947 0 .523.424.947.947.947h10.499a.947.947 0 0 0 .947-.947c0-.523.424-.947.946-.947h51.226a3 3 0 0 0 3-3v-2.355c0-.855.692-1.547 1.546-1.547.854 0 1.547-.692 1.547-1.546V24.261c0-.854-.693-1.546-1.547-1.546a1.546 1.546 0 0 1-1.546-1.547v-1.092a2.64 2.64 0 0 0-2.639-2.64h-50.774a1.759 1.759 0 0 1-1.759-1.759Z" fill="#fff"/><path d="M504.811 14.918h8.873v-2h-8.873v2Zm-3.519 1.519H335.473v2h165.819v-2Zm-169.819 4v109.978h2V20.437h-2Zm4 113.978h166.631v-2H335.473v2Zm179.024-.106h-10.499v2h10.499v-2Zm1.893.106h51.226v-2H516.39v2Zm55.226-4v-2.355h-2v2.355h2Zm3.093-5.448V24.261h-2v100.706h2Zm-3.093-103.799v-1.092h-2v1.092h2Zm-3.639-4.731h-50.774v2h50.774v-2Zm-50.774 0a.76.76 0 0 1-.759-.76h-2a2.759 2.759 0 0 0 2.759 2.76v-2Zm54.413 3.639a3.64 3.64 0 0 0-3.639-3.64v2a1.64 1.64 0 0 1 1.639 1.64h2Zm.546 1.639a.546.546 0 0 1-.546-.547h-2a2.546 2.546 0 0 0 2.546 2.547v-2Zm2.547 2.546a2.547 2.547 0 0 0-2.547-2.546v2c.302 0 .547.244.547.546h2Zm-2.547 103.252a2.546 2.546 0 0 0 2.547-2.546h-2a.547.547 0 0 1-.547.546v2Zm-.546.547c0-.302.244-.547.546-.547v-2a2.546 2.546 0 0 0-2.546 2.547h2Zm-4 6.355a4 4 0 0 0 4-4h-2a2 2 0 0 1-2 2v2Zm-51.172-.053c0 .03-.024.053-.054.053v-2a1.947 1.947 0 0 0-1.946 1.947h2Zm-1.947 1.947a1.947 1.947 0 0 0 1.947-1.947h-2c0-.029.023-.053.053-.053v2Zm-12.446-1.947c0 1.075.872 1.947 1.947 1.947v-2c.03 0 .053.024.053.053h-2Zm.053.053a.053.053 0 0 1-.053-.053h2a1.947 1.947 0 0 0-1.947-1.947v2Zm-170.631-4a4 4 0 0 0 4 4v-2a2 2 0 0 1-2-2h-2Zm4-113.978a4 4 0 0 0-4 4h2a2 2 0 0 1 2-2v-2Zm166.578-.76c0 .42-.34.76-.759.76v2a2.759 2.759 0 0 0 2.759-2.76h-2Zm11.633-.759c.42 0 .76.34.76.76h2a2.76 2.76 0 0 0-2.76-2.76v2Zm-8.873-2a2.76 2.76 0 0 0-2.76 2.76h2c0-.42.34-.76.76-.76v-2Z" fill="#000"/><path d="M332.473 19.488a5 5 0 0 0-5.538-4.971l-37.374 4.04-35.359 8.92a10 10 0 0 0-7.554 9.695v74.883c0 4.58 3.113 8.575 7.554 9.696l35.359 8.919 37.374 4.04a5 5 0 0 0 5.538-4.971V19.488Z" fill="#fff" stroke="#000" stroke-width="2"/><rect x="338.385" y="21.375" width="229.411" height="106.474" rx="4.5" fill="#fff" stroke="#6A6A6A"/><path fill-rule="evenodd" clip-rule="evenodd" d="M341.751 24.742h3.093v.773h47.164v-.773h3.093v3.093h-.773v17.01h.773v3.093h-3.093v-.773h-47.164v.773h-3.093v-3.093h.773v-17.01h-.773v-3.093Z" fill="#fff"/><path d="M344.844 24.742h.5a.5.5 0 0 0-.5-.5v.5Zm-3.093 0v-.5a.5.5 0 0 0-.5.5h.5Zm3.093.773h-.5a.5.5 0 0 0 .5.5v-.5Zm47.164 0v.5a.5.5 0 0 0 .5-.5h-.5Zm0-.773v-.5a.5.5 0 0 0-.5.5h.5Zm3.093 0h.5a.5.5 0 0 0-.5-.5v.5Zm0 3.093v.5a.5.5 0 0 0 .5-.5h-.5Zm-.773 0v-.5a.5.5 0 0 0-.5.5h.5Zm0 17.01h-.5a.5.5 0 0 0 .5.5v-.5Zm.773 0h.5a.5.5 0 0 0-.5-.5v.5Zm0 3.093v.5a.5.5 0 0 0 .5-.5h-.5Zm-3.093 0h-.5a.5.5 0 0 0 .5.5v-.5Zm0-.773h.5a.5.5 0 0 0-.5-.5v.5Zm-47.164 0v-.5a.5.5 0 0 0-.5.5h.5Zm0 .773v.5a.5.5 0 0 0 .5-.5h-.5Zm-3.093 0h-.5a.5.5 0 0 0 .5.5v-.5Zm0-3.093v-.5a.5.5 0 0 0-.5.5h.5Zm.773 0v.5a.5.5 0 0 0 .5-.5h-.5Zm0-17.01h.5a.5.5 0 0 0-.5-.5v.5Zm-.773 0h-.5a.5.5 0 0 0 .5.5v-.5Zm3.093-3.593h-3.093v1h3.093v-1Zm.5 1.273v-.773h-1v.773h1Zm46.664-.5h-47.164v1h47.164v-1Zm-.5-.273v.773h1v-.773h-1Zm3.593-.5h-3.093v1h3.093v-1Zm.5 3.593v-3.093h-1v3.093h1Zm-1.273.5h.773v-1h-.773v1Zm.5 16.51v-17.01h-1v17.01h1Zm-.5.5h.773v-1h-.773v1Zm.273-.5v3.093h1v-3.093h-1Zm.5 2.593h-3.093v1h3.093v-1Zm-2.593.5v-.773h-1v.773h1Zm-47.664-.273h47.164v-1h-47.164v1Zm.5.273v-.773h-1v.773h1Zm-3.593.5h3.093v-1h-3.093v1Zm-.5-3.593v3.093h1v-3.093h-1Zm1.273-.5h-.773v1h.773v-1Zm-.5-16.51v17.01h1v-17.01h-1Zm-.273.5h.773v-1h-.773v1Zm-.5-3.593v3.093h1v-3.093h-1Z" fill="#000"/><path stroke="#CFCFCF" d="M338.539 27.836v17.01M342.539 27.836v17.01M346.539 27.836v17.01M350.539 27.836v17.01M354.539 27.836v17.01M358.539 27.836v17.01M362.539 27.836v17.01M366.539 27.836v17.01M370.539 27.836v17.01M374.539 27.836v17.01M378.539 27.836v17.01M382.539 27.836v17.01M386.539 27.836v17.01M390.539 27.836v17.01M394.539 27.836v17.01M398.539 27.836v17.01"/><path d="M338.039 28.836h60v-2h-60v2Zm60 15.01h-60v2h60v-2Z" fill="#CFCFCF" mask="url('#path-7-inside-1_1383_56603')"/><path fill-rule="evenodd" clip-rule="evenodd" d="M398.194 24.742h3.093v.773h47.165v-.773h3.093v3.093h-.774v17.01h.774v3.093h-3.093v-.773h-47.165v.773h-3.093v-3.093h.774v-17.01h-.774v-3.093Z" fill="#fff"/><path d="M401.287 24.742h.5a.5.5 0 0 0-.5-.5v.5Zm-3.093 0v-.5a.5.5 0 0 0-.5.5h.5Zm3.093.773h-.5a.5.5 0 0 0 .5.5v-.5Zm47.165 0v.5a.5.5 0 0 0 .5-.5h-.5Zm0-.773v-.5a.5.5 0 0 0-.5.5h.5Zm3.093 0h.5a.5.5 0 0 0-.5-.5v.5Zm0 3.093v.5a.5.5 0 0 0 .5-.5h-.5Zm-.774 0v-.5a.5.5 0 0 0-.5.5h.5Zm0 17.01h-.5a.5.5 0 0 0 .5.5v-.5Zm.774 0h.5a.5.5 0 0 0-.5-.5v.5Zm0 3.093v.5a.5.5 0 0 0 .5-.5h-.5Zm-3.093 0h-.5a.5.5 0 0 0 .5.5v-.5Zm0-.773h.5a.5.5 0 0 0-.5-.5v.5Zm-47.165 0v-.5a.5.5 0 0 0-.5.5h.5Zm0 .773v.5a.5.5 0 0 0 .5-.5h-.5Zm-3.093 0h-.5a.5.5 0 0 0 .5.5v-.5Zm0-3.093v-.5a.5.5 0 0 0-.5.5h.5Zm.774 0v.5a.5.5 0 0 0 .5-.5h-.5Zm0-17.01h.5a.5.5 0 0 0-.5-.5v.5Zm-.774 0h-.5a.5.5 0 0 0 .5.5v-.5Zm3.093-3.593h-3.093v1h3.093v-1Zm.5 1.273v-.773h-1v.773h1Zm46.665-.5h-47.165v1h47.165v-1Zm-.5-.273v.773h1v-.773h-1Zm3.593-.5h-3.093v1h3.093v-1Zm.5 3.593v-3.093h-1v3.093h1Zm-1.274.5h.774v-1h-.774v1Zm.5 16.51v-17.01h-1v17.01h1Zm-.5.5h.774v-1h-.774v1Zm.274-.5v3.093h1v-3.093h-1Zm.5 2.593h-3.093v1h3.093v-1Zm-2.593.5v-.773h-1v.773h1Zm-47.665-.273h47.165v-1h-47.165v1Zm.5.273v-.773h-1v.773h1Zm-3.593.5h3.093v-1h-3.093v1Zm-.5-3.593v3.093h1v-3.093h-1Zm1.274-.5h-.774v1h.774v-1Zm-.5-16.51v17.01h1v-17.01h-1Zm-.274.5h.774v-1h-.774v1Zm-.5-3.593v3.093h1v-3.093h-1Z" fill="#000"/><path stroke="#CFCFCF" d="M394.982 27.836v17.01M398.982 27.836v17.01M402.982 27.836v17.01M406.982 27.836v17.01M410.982 27.836v17.01M414.982 27.836v17.01M418.982 27.836v17.01M422.982 27.836v17.01M426.982 27.836v17.01M430.982 27.836v17.01M434.982 27.836v17.01M438.982 27.836v17.01M442.982 27.836v17.01M446.982 27.836v17.01M450.982 27.836v17.01M454.982 27.836v17.01"/><path d="M394.482 28.836h60v-2h-60v2Zm60 15.01h-60v2h60v-2Z" fill="#CFCFCF" mask="url('#path-27-inside-2_1383_56603')"/><path fill-rule="evenodd" clip-rule="evenodd" d="M454.637 24.742h3.092v.773h47.165v-.773h3.093v3.093h-.773v17.01h.773v3.093h-3.093v-.773h-47.165v.773h-3.092v-3.093h.773v-17.01h-.773v-3.093Z" fill="#fff"/><path d="M457.729 24.742h.5a.5.5 0 0 0-.5-.5v.5Zm-3.092 0v-.5a.5.5 0 0 0-.5.5h.5Zm3.092.773h-.5a.5.5 0 0 0 .5.5v-.5Zm47.165 0v.5a.5.5 0 0 0 .5-.5h-.5Zm0-.773v-.5a.5.5 0 0 0-.5.5h.5Zm3.093 0h.5a.5.5 0 0 0-.5-.5v.5Zm0 3.093v.5a.5.5 0 0 0 .5-.5h-.5Zm-.773 0v-.5a.5.5 0 0 0-.5.5h.5Zm0 17.01h-.5a.5.5 0 0 0 .5.5v-.5Zm.773 0h.5a.5.5 0 0 0-.5-.5v.5Zm0 3.093v.5a.5.5 0 0 0 .5-.5h-.5Zm-3.093 0h-.5a.5.5 0 0 0 .5.5v-.5Zm0-.773h.5a.5.5 0 0 0-.5-.5v.5Zm-47.165 0v-.5a.5.5 0 0 0-.5.5h.5Zm0 .773v.5a.5.5 0 0 0 .5-.5h-.5Zm-3.092 0h-.5a.5.5 0 0 0 .5.5v-.5Zm0-3.093v-.5a.5.5 0 0 0-.5.5h.5Zm.773 0v.5a.5.5 0 0 0 .5-.5h-.5Zm0-17.01h.5a.5.5 0 0 0-.5-.5v.5Zm-.773 0h-.5a.5.5 0 0 0 .5.5v-.5Zm3.092-3.593h-3.092v1h3.092v-1Zm.5 1.273v-.773h-1v.773h1Zm46.665-.5h-47.165v1h47.165v-1Zm-.5-.273v.773h1v-.773h-1Zm3.593-.5h-3.093v1h3.093v-1Zm.5 3.593v-3.093h-1v3.093h1Zm-1.273.5h.773v-1h-.773v1Zm.5 16.51v-17.01h-1v17.01h1Zm-.5.5h.773v-1h-.773v1Zm.273-.5v3.093h1v-3.093h-1Zm.5 2.593h-3.093v1h3.093v-1Zm-2.593.5v-.773h-1v.773h1Zm-47.665-.273h47.165v-1h-47.165v1Zm.5.273v-.773h-1v.773h1Zm-3.592.5h3.092v-1h-3.092v1Zm-.5-3.593v3.093h1v-3.093h-1Zm1.273-.5h-.773v1h.773v-1Zm-.5-16.51v17.01h1v-17.01h-1Zm-.273.5h.773v-1h-.773v1Zm-.5-3.593v3.093h1v-3.093h-1Z" fill="#000"/><path stroke="#CFCFCF" d="M451.425 27.836v17.01M455.425 27.836v17.01M459.425 27.836v17.01M463.425 27.836v17.01M467.425 27.836v17.01M471.425 27.836v17.01M475.425 27.836v17.01M479.425 27.836v17.01M483.425 27.836v17.01M487.425 27.836v17.01M491.425 27.836v17.01M495.425 27.836v17.01M499.425 27.836v17.01M503.425 27.836v17.01M507.425 27.836v17.01M511.425 27.836v17.01"/><path d="M450.925 28.836h60v-2h-60v2Zm60 15.01h-60v2h60v-2Z" fill="#CFCFCF" mask="url('#path-47-inside-3_1383_56603')"/><path fill-rule="evenodd" clip-rule="evenodd" d="M511.08 24.742h3.093v.773h47.165v-.773h3.092v3.093h-.773v17.01h.773v3.093h-3.092v-.773h-47.165v.773h-3.093v-3.093h.773v-17.01h-.773v-3.093Z" fill="#fff"/><path d="M514.173 24.742h.5a.5.5 0 0 0-.5-.5v.5Zm-3.093 0v-.5a.5.5 0 0 0-.5.5h.5Zm3.093.773h-.5a.5.5 0 0 0 .5.5v-.5Zm47.165 0v.5a.5.5 0 0 0 .5-.5h-.5Zm0-.773v-.5a.5.5 0 0 0-.5.5h.5Zm3.092 0h.5a.5.5 0 0 0-.5-.5v.5Zm0 3.093v.5a.5.5 0 0 0 .5-.5h-.5Zm-.773 0v-.5a.5.5 0 0 0-.5.5h.5Zm0 17.01h-.5a.5.5 0 0 0 .5.5v-.5Zm.773 0h.5a.5.5 0 0 0-.5-.5v.5Zm0 3.093v.5a.5.5 0 0 0 .5-.5h-.5Zm-3.092 0h-.5a.5.5 0 0 0 .5.5v-.5Zm0-.773h.5a.5.5 0 0 0-.5-.5v.5Zm-47.165 0v-.5a.5.5 0 0 0-.5.5h.5Zm0 .773v.5a.5.5 0 0 0 .5-.5h-.5Zm-3.093 0h-.5a.5.5 0 0 0 .5.5v-.5Zm0-3.093v-.5a.5.5 0 0 0-.5.5h.5Zm.773 0v.5a.5.5 0 0 0 .5-.5h-.5Zm0-17.01h.5a.5.5 0 0 0-.5-.5v.5Zm-.773 0h-.5a.5.5 0 0 0 .5.5v-.5Zm3.093-3.593h-3.093v1h3.093v-1Zm.5 1.273v-.773h-1v.773h1Zm46.665-.5h-47.165v1h47.165v-1Zm-.5-.273v.773h1v-.773h-1Zm3.592-.5h-3.092v1h3.092v-1Zm.5 3.593v-3.093h-1v3.093h1Zm-1.273.5h.773v-1h-.773v1Zm.5 16.51v-17.01h-1v17.01h1Zm-.5.5h.773v-1h-.773v1Zm.273-.5v3.093h1v-3.093h-1Zm.5 2.593h-3.092v1h3.092v-1Zm-2.592.5v-.773h-1v.773h1Zm-47.665-.273h47.165v-1h-47.165v1Zm.5.273v-.773h-1v.773h1Zm-3.593.5h3.093v-1h-3.093v1Zm-.5-3.593v3.093h1v-3.093h-1Zm1.273-.5h-.773v1h.773v-1Zm-.5-16.51v17.01h1v-17.01h-1Zm-.273.5h.773v-1h-.773v1Zm-.5-3.593v3.093h1v-3.093h-1Z" fill="#000"/><path stroke="#CFCFCF" d="M507.868 27.836v17.01M511.868 27.836v17.01M515.868 27.836v17.01M519.868 27.836v17.01M523.868 27.836v17.01M527.868 27.836v17.01M531.868 27.836v17.01M535.868 27.836v17.01M539.868 27.836v17.01M543.868 27.836v17.01M547.868 27.836v17.01M551.868 27.836v17.01M555.868 27.836v17.01M559.868 27.836v17.01M563.868 27.836v17.01M567.868 27.836v17.01"/><path d="M507.368 28.836h60v-2h-60v2Zm60 15.01h-60v2h60v-2Z" fill="#CFCFCF" mask="url('#path-67-inside-4_1383_56603')"/><path fill-rule="evenodd" clip-rule="evenodd" d="M341.751 50.258h3.093v.773h47.164v-.773h3.093v3.093h-.773v17.01h.773v3.093h-3.093v-.774h-47.164v.774h-3.093V70.36h.773V53.35h-.773v-3.093Z" fill="#fff"/><path d="M344.844 50.258h.5a.5.5 0 0 0-.5-.5v.5Zm-3.093 0v-.5a.5.5 0 0 0-.5.5h.5Zm3.093.773h-.5a.5.5 0 0 0 .5.5v-.5Zm47.164 0v.5a.5.5 0 0 0 .5-.5h-.5Zm0-.773v-.5a.5.5 0 0 0-.5.5h.5Zm3.093 0h.5a.5.5 0 0 0-.5-.5v.5Zm0 3.093v.5a.5.5 0 0 0 .5-.5h-.5Zm-.773 0v-.5a.5.5 0 0 0-.5.5h.5Zm0 17.01h-.5a.5.5 0 0 0 .5.5v-.5Zm.773 0h.5a.5.5 0 0 0-.5-.5v.5Zm0 3.093v.5a.5.5 0 0 0 .5-.5h-.5Zm-3.093 0h-.5a.5.5 0 0 0 .5.5v-.5Zm0-.774h.5a.5.5 0 0 0-.5-.5v.5Zm-47.164 0v-.5a.5.5 0 0 0-.5.5h.5Zm0 .774v.5a.5.5 0 0 0 .5-.5h-.5Zm-3.093 0h-.5a.5.5 0 0 0 .5.5v-.5Zm0-3.093v-.5a.5.5 0 0 0-.5.5h.5Zm.773 0v.5a.5.5 0 0 0 .5-.5h-.5Zm0-17.01h.5a.5.5 0 0 0-.5-.5v.5Zm-.773 0h-.5a.5.5 0 0 0 .5.5v-.5Zm3.093-3.593h-3.093v1h3.093v-1Zm.5 1.273v-.773h-1v.773h1Zm46.664-.5h-47.164v1h47.164v-1Zm-.5-.273v.773h1v-.773h-1Zm3.593-.5h-3.093v1h3.093v-1Zm.5 3.593v-3.093h-1v3.093h1Zm-1.273.5h.773v-1h-.773v1Zm.5 16.51V53.35h-1v17.01h1Zm-.5.5h.773v-1h-.773v1Zm.273-.5v3.093h1V70.36h-1Zm.5 2.593h-3.093v1h3.093v-1Zm-2.593.5v-.774h-1v.774h1Zm-47.664-.274h47.164v-1h-47.164v1Zm.5.274v-.774h-1v.774h1Zm-3.593.5h3.093v-1h-3.093v1Zm-.5-3.593v3.093h1V70.36h-1Zm1.273-.5h-.773v1h.773v-1Zm-.5-16.51v17.01h1V53.35h-1Zm-.273.5h.773v-1h-.773v1Zm-.5-3.593v3.093h1v-3.093h-1Z" fill="#000"/><path stroke="#CFCFCF" d="M338.539 53.352v17.01M342.539 53.352v17.01M346.539 53.352v17.01M350.539 53.352v17.01M354.539 53.352v17.01M358.539 53.352v17.01M362.539 53.352v17.01M366.539 53.352v17.01M370.539 53.352v17.01M374.539 53.352v17.01M378.539 53.352v17.01M382.539 53.352v17.01M386.539 53.352v17.01M390.539 53.352v17.01M394.539 53.352v17.01M398.539 53.352v17.01"/><path d="M338.039 54.352h60v-2h-60v2Zm60 15.01h-60v2h60v-2Z" fill="#CFCFCF" mask="url('#path-87-inside-5_1383_56603')"/><path fill-rule="evenodd" clip-rule="evenodd" d="M398.193 50.258h3.093v.773h47.165v-.773h3.093v3.093h-.774v17.01h.774v3.093h-3.093v-.774h-47.165v.774h-3.093V70.36h.774V53.35h-.774v-3.093Z" fill="#fff"/><path d="M401.286 50.258h.5a.5.5 0 0 0-.5-.5v.5Zm-3.093 0v-.5a.5.5 0 0 0-.5.5h.5Zm3.093.773h-.5a.5.5 0 0 0 .5.5v-.5Zm47.165 0v.5a.5.5 0 0 0 .5-.5h-.5Zm0-.773v-.5a.5.5 0 0 0-.5.5h.5Zm3.093 0h.5a.5.5 0 0 0-.5-.5v.5Zm0 3.093v.5a.5.5 0 0 0 .5-.5h-.5Zm-.774 0v-.5a.5.5 0 0 0-.5.5h.5Zm0 17.01h-.5a.5.5 0 0 0 .5.5v-.5Zm.774 0h.5a.5.5 0 0 0-.5-.5v.5Zm0 3.093v.5a.5.5 0 0 0 .5-.5h-.5Zm-3.093 0h-.5a.5.5 0 0 0 .5.5v-.5Zm0-.774h.5a.5.5 0 0 0-.5-.5v.5Zm-47.165 0v-.5a.5.5 0 0 0-.5.5h.5Zm0 .774v.5a.5.5 0 0 0 .5-.5h-.5Zm-3.093 0h-.5a.5.5 0 0 0 .5.5v-.5Zm0-3.093v-.5a.5.5 0 0 0-.5.5h.5Zm.774 0v.5a.5.5 0 0 0 .5-.5h-.5Zm0-17.01h.5a.5.5 0 0 0-.5-.5v.5Zm-.774 0h-.5a.5.5 0 0 0 .5.5v-.5Zm3.093-3.593h-3.093v1h3.093v-1Zm.5 1.273v-.773h-1v.773h1Zm46.665-.5h-47.165v1h47.165v-1Zm-.5-.273v.773h1v-.773h-1Zm3.593-.5h-3.093v1h3.093v-1Zm.5 3.593v-3.093h-1v3.093h1Zm-1.274.5h.774v-1h-.774v1Zm.5 16.51V53.35h-1v17.01h1Zm-.5.5h.774v-1h-.774v1Zm.274-.5v3.093h1V70.36h-1Zm.5 2.593h-3.093v1h3.093v-1Zm-2.593.5v-.774h-1v.774h1Zm-47.665-.274h47.165v-1h-47.165v1Zm.5.274v-.774h-1v.774h1Zm-3.593.5h3.093v-1h-3.093v1Zm-.5-3.593v3.093h1V70.36h-1Zm1.274-.5h-.774v1h.774v-1Zm-.5-16.51v17.01h1V53.35h-1Zm-.274.5h.774v-1h-.774v1Zm-.5-3.593v3.093h1v-3.093h-1Z" fill="#000"/><path stroke="#CFCFCF" d="M394.981 53.352v17.01M398.981 53.352v17.01M402.981 53.352v17.01M406.981 53.352v17.01M410.981 53.352v17.01M414.981 53.352v17.01M418.981 53.352v17.01M422.981 53.352v17.01M426.981 53.352v17.01M430.981 53.352v17.01M434.981 53.352v17.01M438.981 53.352v17.01M442.981 53.352v17.01M446.981 53.352v17.01M450.981 53.352v17.01M454.981 53.352v17.01"/><path d="M394.481 54.352h60v-2h-60v2Zm60 15.01h-60v2h60v-2Z" fill="#CFCFCF" mask="url('#path-107-inside-6_1383_56603')"/><path fill-rule="evenodd" clip-rule="evenodd" d="M454.637 50.258h3.092v.773h47.165v-.773h3.093v3.093h-.773v17.01h.773v3.093h-3.093v-.774h-47.165v.774h-3.092V70.36h.773V53.35h-.773v-3.093Z" fill="#fff"/><path d="M457.729 50.258h.5a.5.5 0 0 0-.5-.5v.5Zm-3.092 0v-.5a.5.5 0 0 0-.5.5h.5Zm3.092.773h-.5a.5.5 0 0 0 .5.5v-.5Zm47.165 0v.5a.5.5 0 0 0 .5-.5h-.5Zm0-.773v-.5a.5.5 0 0 0-.5.5h.5Zm3.093 0h.5a.5.5 0 0 0-.5-.5v.5Zm0 3.093v.5a.5.5 0 0 0 .5-.5h-.5Zm-.773 0v-.5a.5.5 0 0 0-.5.5h.5Zm0 17.01h-.5a.5.5 0 0 0 .5.5v-.5Zm.773 0h.5a.5.5 0 0 0-.5-.5v.5Zm0 3.093v.5a.5.5 0 0 0 .5-.5h-.5Zm-3.093 0h-.5a.5.5 0 0 0 .5.5v-.5Zm0-.774h.5a.5.5 0 0 0-.5-.5v.5Zm-47.165 0v-.5a.5.5 0 0 0-.5.5h.5Zm0 .774v.5a.5.5 0 0 0 .5-.5h-.5Zm-3.092 0h-.5a.5.5 0 0 0 .5.5v-.5Zm0-3.093v-.5a.5.5 0 0 0-.5.5h.5Zm.773 0v.5a.5.5 0 0 0 .5-.5h-.5Zm0-17.01h.5a.5.5 0 0 0-.5-.5v.5Zm-.773 0h-.5a.5.5 0 0 0 .5.5v-.5Zm3.092-3.593h-3.092v1h3.092v-1Zm.5 1.273v-.773h-1v.773h1Zm46.665-.5h-47.165v1h47.165v-1Zm-.5-.273v.773h1v-.773h-1Zm3.593-.5h-3.093v1h3.093v-1Zm.5 3.593v-3.093h-1v3.093h1Zm-1.273.5h.773v-1h-.773v1Zm.5 16.51V53.35h-1v17.01h1Zm-.5.5h.773v-1h-.773v1Zm.273-.5v3.093h1V70.36h-1Zm.5 2.593h-3.093v1h3.093v-1Zm-2.593.5v-.774h-1v.774h1Zm-47.665-.274h47.165v-1h-47.165v1Zm.5.274v-.774h-1v.774h1Zm-3.592.5h3.092v-1h-3.092v1Zm-.5-3.593v3.093h1V70.36h-1Zm1.273-.5h-.773v1h.773v-1Zm-.5-16.51v17.01h1V53.35h-1Zm-.273.5h.773v-1h-.773v1Zm-.5-3.593v3.093h1v-3.093h-1Z" fill="#000"/><path stroke="#CFCFCF" d="M451.425 53.352v17.01M455.425 53.352v17.01M459.425 53.352v17.01M463.425 53.352v17.01M467.425 53.352v17.01M471.425 53.352v17.01M475.425 53.352v17.01M479.425 53.352v17.01M483.425 53.352v17.01M487.425 53.352v17.01M491.425 53.352v17.01M495.425 53.352v17.01M499.425 53.352v17.01M503.425 53.352v17.01M507.425 53.352v17.01M511.425 53.352v17.01"/><path d="M450.925 54.352h60v-2h-60v2Zm60 15.01h-60v2h60v-2Z" fill="#CFCFCF" mask="url('#path-127-inside-7_1383_56603')"/><path fill-rule="evenodd" clip-rule="evenodd" d="M511.08 50.258h3.093v.773h47.165v-.773h3.092v3.093h-.773v17.01h.773v3.093h-3.092v-.774h-47.165v.774h-3.093V70.36h.773V53.35h-.773v-3.093Z" fill="#fff"/><path d="M514.173 50.258h.5a.5.5 0 0 0-.5-.5v.5Zm-3.093 0v-.5a.5.5 0 0 0-.5.5h.5Zm3.093.773h-.5a.5.5 0 0 0 .5.5v-.5Zm47.165 0v.5a.5.5 0 0 0 .5-.5h-.5Zm0-.773v-.5a.5.5 0 0 0-.5.5h.5Zm3.092 0h.5a.5.5 0 0 0-.5-.5v.5Zm0 3.093v.5a.5.5 0 0 0 .5-.5h-.5Zm-.773 0v-.5a.5.5 0 0 0-.5.5h.5Zm0 17.01h-.5a.5.5 0 0 0 .5.5v-.5Zm.773 0h.5a.5.5 0 0 0-.5-.5v.5Zm0 3.093v.5a.5.5 0 0 0 .5-.5h-.5Zm-3.092 0h-.5a.5.5 0 0 0 .5.5v-.5Zm0-.774h.5a.5.5 0 0 0-.5-.5v.5Zm-47.165 0v-.5a.5.5 0 0 0-.5.5h.5Zm0 .774v.5a.5.5 0 0 0 .5-.5h-.5Zm-3.093 0h-.5a.5.5 0 0 0 .5.5v-.5Zm0-3.093v-.5a.5.5 0 0 0-.5.5h.5Zm.773 0v.5a.5.5 0 0 0 .5-.5h-.5Zm0-17.01h.5a.5.5 0 0 0-.5-.5v.5Zm-.773 0h-.5a.5.5 0 0 0 .5.5v-.5Zm3.093-3.593h-3.093v1h3.093v-1Zm.5 1.273v-.773h-1v.773h1Zm46.665-.5h-47.165v1h47.165v-1Zm-.5-.273v.773h1v-.773h-1Zm3.592-.5h-3.092v1h3.092v-1Zm.5 3.593v-3.093h-1v3.093h1Zm-1.273.5h.773v-1h-.773v1Zm.5 16.51V53.35h-1v17.01h1Zm-.5.5h.773v-1h-.773v1Zm.273-.5v3.093h1V70.36h-1Zm.5 2.593h-3.092v1h3.092v-1Zm-2.592.5v-.774h-1v.774h1Zm-47.665-.274h47.165v-1h-47.165v1Zm.5.274v-.774h-1v.774h1Zm-3.593.5h3.093v-1h-3.093v1Zm-.5-3.593v3.093h1V70.36h-1Zm1.273-.5h-.773v1h.773v-1Zm-.5-16.51v17.01h1V53.35h-1Zm-.273.5h.773v-1h-.773v1Zm-.5-3.593v3.093h1v-3.093h-1Z" fill="#000"/><path stroke="#CFCFCF" d="M507.868 53.352v17.01M511.868 53.352v17.01M515.868 53.352v17.01M519.868 53.352v17.01M523.868 53.352v17.01M527.868 53.352v17.01M531.868 53.352v17.01M535.868 53.352v17.01M539.868 53.352v17.01M543.868 53.352v17.01M547.868 53.352v17.01M551.868 53.352v17.01M555.868 53.352v17.01M559.868 53.352v17.01M563.868 53.352v17.01M567.868 53.352v17.01"/><path d="M507.368 54.352h60v-2h-60v2Zm60 15.01h-60v2h60v-2Z" fill="#CFCFCF" mask="url('#path-147-inside-8_1383_56603')"/><path fill-rule="evenodd" clip-rule="evenodd" d="M341.751 75.773h3.093v.774h47.164v-.774h3.093v3.093h-.773v17.01h.773v3.093h-3.093v-.773h-47.164v.773h-3.093v-3.093h.773v-17.01h-.773v-3.093Z" fill="#fff"/><path d="M344.844 75.773h.5a.5.5 0 0 0-.5-.5v.5Zm-3.093 0v-.5a.5.5 0 0 0-.5.5h.5Zm3.093.774h-.5a.5.5 0 0 0 .5.5v-.5Zm47.164 0v.5a.5.5 0 0 0 .5-.5h-.5Zm0-.774v-.5a.5.5 0 0 0-.5.5h.5Zm3.093 0h.5a.5.5 0 0 0-.5-.5v.5Zm0 3.093v.5a.5.5 0 0 0 .5-.5h-.5Zm-.773 0v-.5a.5.5 0 0 0-.5.5h.5Zm0 17.01h-.5a.5.5 0 0 0 .5.5v-.5Zm.773 0h.5a.5.5 0 0 0-.5-.5v.5Zm0 3.093v.5a.5.5 0 0 0 .5-.5h-.5Zm-3.093 0h-.5a.5.5 0 0 0 .5.5v-.5Zm0-.773h.5a.5.5 0 0 0-.5-.5v.5Zm-47.164 0v-.5a.5.5 0 0 0-.5.5h.5Zm0 .773v.5a.5.5 0 0 0 .5-.5h-.5Zm-3.093 0h-.5a.5.5 0 0 0 .5.5v-.5Zm0-3.093v-.5a.5.5 0 0 0-.5.5h.5Zm.773 0v.5a.5.5 0 0 0 .5-.5h-.5Zm0-17.01h.5a.5.5 0 0 0-.5-.5v.5Zm-.773 0h-.5a.5.5 0 0 0 .5.5v-.5Zm3.093-3.593h-3.093v1h3.093v-1Zm.5 1.274v-.774h-1v.774h1Zm46.664-.5h-47.164v1h47.164v-1Zm-.5-.274v.774h1v-.774h-1Zm3.593-.5h-3.093v1h3.093v-1Zm.5 3.593v-3.093h-1v3.093h1Zm-1.273.5h.773v-1h-.773v1Zm.5 16.51v-17.01h-1v17.01h1Zm-.5.5h.773v-1h-.773v1Zm.273-.5v3.093h1v-3.093h-1Zm.5 2.593h-3.093v1h3.093v-1Zm-2.593.5v-.773h-1v.773h1Zm-47.664-.273h47.164v-1h-47.164v1Zm.5.273v-.773h-1v.773h1Zm-3.593.5h3.093v-1h-3.093v1Zm-.5-3.593v3.093h1v-3.093h-1Zm1.273-.5h-.773v1h.773v-1Zm-.5-16.51v17.01h1v-17.01h-1Zm-.273.5h.773v-1h-.773v1Zm-.5-3.593v3.093h1v-3.093h-1Z" fill="#000"/><path stroke="#CFCFCF" d="M338.539 78.867v17.01M342.539 78.867v17.01M346.539 78.867v17.01M350.539 78.867v17.01M354.539 78.867v17.01M358.539 78.867v17.01M362.539 78.867v17.01M366.539 78.867v17.01M370.539 78.867v17.01M374.539 78.867v17.01M378.539 78.867v17.01M382.539 78.867v17.01M386.539 78.867v17.01M390.539 78.867v17.01M394.539 78.867v17.01M398.539 78.867v17.01"/><path d="M338.039 79.867h60v-2h-60v2Zm60 15.01h-60v2h60v-2Z" fill="#CFCFCF" mask="url('#path-167-inside-9_1383_56603')"/><path fill-rule="evenodd" clip-rule="evenodd" d="M398.193 75.773h3.093v.774h47.165v-.774h3.093v3.093h-.774v17.01h.774v3.093h-3.093v-.773h-47.165v.773h-3.093v-3.093h.774v-17.01h-.774v-3.093Z" fill="#fff"/><path d="M401.286 75.773h.5a.5.5 0 0 0-.5-.5v.5Zm-3.093 0v-.5a.5.5 0 0 0-.5.5h.5Zm3.093.774h-.5a.5.5 0 0 0 .5.5v-.5Zm47.165 0v.5a.5.5 0 0 0 .5-.5h-.5Zm0-.774v-.5a.5.5 0 0 0-.5.5h.5Zm3.093 0h.5a.5.5 0 0 0-.5-.5v.5Zm0 3.093v.5a.5.5 0 0 0 .5-.5h-.5Zm-.774 0v-.5a.5.5 0 0 0-.5.5h.5Zm0 17.01h-.5a.5.5 0 0 0 .5.5v-.5Zm.774 0h.5a.5.5 0 0 0-.5-.5v.5Zm0 3.093v.5a.5.5 0 0 0 .5-.5h-.5Zm-3.093 0h-.5a.5.5 0 0 0 .5.5v-.5Zm0-.773h.5a.5.5 0 0 0-.5-.5v.5Zm-47.165 0v-.5a.5.5 0 0 0-.5.5h.5Zm0 .773v.5a.5.5 0 0 0 .5-.5h-.5Zm-3.093 0h-.5a.5.5 0 0 0 .5.5v-.5Zm0-3.093v-.5a.5.5 0 0 0-.5.5h.5Zm.774 0v.5a.5.5 0 0 0 .5-.5h-.5Zm0-17.01h.5a.5.5 0 0 0-.5-.5v.5Zm-.774 0h-.5a.5.5 0 0 0 .5.5v-.5Zm3.093-3.593h-3.093v1h3.093v-1Zm.5 1.274v-.774h-1v.774h1Zm46.665-.5h-47.165v1h47.165v-1Zm-.5-.274v.774h1v-.774h-1Zm3.593-.5h-3.093v1h3.093v-1Zm.5 3.593v-3.093h-1v3.093h1Zm-1.274.5h.774v-1h-.774v1Zm.5 16.51v-17.01h-1v17.01h1Zm-.5.5h.774v-1h-.774v1Zm.274-.5v3.093h1v-3.093h-1Zm.5 2.593h-3.093v1h3.093v-1Zm-2.593.5v-.773h-1v.773h1Zm-47.665-.273h47.165v-1h-47.165v1Zm.5.273v-.773h-1v.773h1Zm-3.593.5h3.093v-1h-3.093v1Zm-.5-3.593v3.093h1v-3.093h-1Zm1.274-.5h-.774v1h.774v-1Zm-.5-16.51v17.01h1v-17.01h-1Zm-.274.5h.774v-1h-.774v1Zm-.5-3.593v3.093h1v-3.093h-1Z" fill="#000"/><path stroke="#CFCFCF" d="M394.981 78.867v17.01M398.981 78.867v17.01M402.981 78.867v17.01M406.981 78.867v17.01M410.981 78.867v17.01M414.981 78.867v17.01M418.981 78.867v17.01M422.981 78.867v17.01M426.981 78.867v17.01M430.981 78.867v17.01M434.981 78.867v17.01M438.981 78.867v17.01M442.981 78.867v17.01M446.981 78.867v17.01M450.981 78.867v17.01M454.981 78.867v17.01"/><path d="M394.481 79.867h60v-2h-60v2Zm60 15.01h-60v2h60v-2Z" fill="#CFCFCF" mask="url('#path-187-inside-10_1383_56603')"/><path fill-rule="evenodd" clip-rule="evenodd" d="M454.637 75.773h3.092v.774h47.165v-.774h3.093v3.093h-.773v17.01h.773v3.093h-3.093v-.773h-47.165v.773h-3.092v-3.093h.773v-17.01h-.773v-3.093Z" fill="#fff"/><path d="M457.729 75.773h.5a.5.5 0 0 0-.5-.5v.5Zm-3.092 0v-.5a.5.5 0 0 0-.5.5h.5Zm3.092.774h-.5a.5.5 0 0 0 .5.5v-.5Zm47.165 0v.5a.5.5 0 0 0 .5-.5h-.5Zm0-.774v-.5a.5.5 0 0 0-.5.5h.5Zm3.093 0h.5a.5.5 0 0 0-.5-.5v.5Zm0 3.093v.5a.5.5 0 0 0 .5-.5h-.5Zm-.773 0v-.5a.5.5 0 0 0-.5.5h.5Zm0 17.01h-.5a.5.5 0 0 0 .5.5v-.5Zm.773 0h.5a.5.5 0 0 0-.5-.5v.5Zm0 3.093v.5a.5.5 0 0 0 .5-.5h-.5Zm-3.093 0h-.5a.5.5 0 0 0 .5.5v-.5Zm0-.773h.5a.5.5 0 0 0-.5-.5v.5Zm-47.165 0v-.5a.5.5 0 0 0-.5.5h.5Zm0 .773v.5a.5.5 0 0 0 .5-.5h-.5Zm-3.092 0h-.5a.5.5 0 0 0 .5.5v-.5Zm0-3.093v-.5a.5.5 0 0 0-.5.5h.5Zm.773 0v.5a.5.5 0 0 0 .5-.5h-.5Zm0-17.01h.5a.5.5 0 0 0-.5-.5v.5Zm-.773 0h-.5a.5.5 0 0 0 .5.5v-.5Zm3.092-3.593h-3.092v1h3.092v-1Zm.5 1.274v-.774h-1v.774h1Zm46.665-.5h-47.165v1h47.165v-1Zm-.5-.274v.774h1v-.774h-1Zm3.593-.5h-3.093v1h3.093v-1Zm.5 3.593v-3.093h-1v3.093h1Zm-1.273.5h.773v-1h-.773v1Zm.5 16.51v-17.01h-1v17.01h1Zm-.5.5h.773v-1h-.773v1Zm.273-.5v3.093h1v-3.093h-1Zm.5 2.593h-3.093v1h3.093v-1Zm-2.593.5v-.773h-1v.773h1Zm-47.665-.273h47.165v-1h-47.165v1Zm.5.273v-.773h-1v.773h1Zm-3.592.5h3.092v-1h-3.092v1Zm-.5-3.593v3.093h1v-3.093h-1Zm1.273-.5h-.773v1h.773v-1Zm-.5-16.51v17.01h1v-17.01h-1Zm-.273.5h.773v-1h-.773v1Zm-.5-3.593v3.093h1v-3.093h-1Z" fill="#000"/><path stroke="#CFCFCF" d="M451.425 78.867v17.01M455.425 78.867v17.01M459.425 78.867v17.01M463.425 78.867v17.01M467.425 78.867v17.01M471.425 78.867v17.01M475.425 78.867v17.01M479.425 78.867v17.01M483.425 78.867v17.01M487.425 78.867v17.01M491.425 78.867v17.01M495.425 78.867v17.01M499.425 78.867v17.01M503.425 78.867v17.01M507.425 78.867v17.01M511.425 78.867v17.01"/><path d="M450.925 79.867h60v-2h-60v2Zm60 15.01h-60v2h60v-2Z" fill="#CFCFCF" mask="url('#path-207-inside-11_1383_56603')"/><path fill-rule="evenodd" clip-rule="evenodd" d="M511.08 75.773h3.093v.774h47.165v-.774h3.092v3.093h-.773v17.01h.773v3.093h-3.092v-.773h-47.165v.773h-3.093v-3.093h.773v-17.01h-.773v-3.093Z" fill="#fff"/><path d="M514.173 75.773h.5a.5.5 0 0 0-.5-.5v.5Zm-3.093 0v-.5a.5.5 0 0 0-.5.5h.5Zm3.093.774h-.5a.5.5 0 0 0 .5.5v-.5Zm47.165 0v.5a.5.5 0 0 0 .5-.5h-.5Zm0-.774v-.5a.5.5 0 0 0-.5.5h.5Zm3.092 0h.5a.5.5 0 0 0-.5-.5v.5Zm0 3.093v.5a.5.5 0 0 0 .5-.5h-.5Zm-.773 0v-.5a.5.5 0 0 0-.5.5h.5Zm0 17.01h-.5a.5.5 0 0 0 .5.5v-.5Zm.773 0h.5a.5.5 0 0 0-.5-.5v.5Zm0 3.093v.5a.5.5 0 0 0 .5-.5h-.5Zm-3.092 0h-.5a.5.5 0 0 0 .5.5v-.5Zm0-.773h.5a.5.5 0 0 0-.5-.5v.5Zm-47.165 0v-.5a.5.5 0 0 0-.5.5h.5Zm0 .773v.5a.5.5 0 0 0 .5-.5h-.5Zm-3.093 0h-.5a.5.5 0 0 0 .5.5v-.5Zm0-3.093v-.5a.5.5 0 0 0-.5.5h.5Zm.773 0v.5a.5.5 0 0 0 .5-.5h-.5Zm0-17.01h.5a.5.5 0 0 0-.5-.5v.5Zm-.773 0h-.5a.5.5 0 0 0 .5.5v-.5Zm3.093-3.593h-3.093v1h3.093v-1Zm.5 1.274v-.774h-1v.774h1Zm46.665-.5h-47.165v1h47.165v-1Zm-.5-.274v.774h1v-.774h-1Zm3.592-.5h-3.092v1h3.092v-1Zm.5 3.593v-3.093h-1v3.093h1Zm-1.273.5h.773v-1h-.773v1Zm.5 16.51v-17.01h-1v17.01h1Zm-.5.5h.773v-1h-.773v1Zm.273-.5v3.093h1v-3.093h-1Zm.5 2.593h-3.092v1h3.092v-1Zm-2.592.5v-.773h-1v.773h1Zm-47.665-.273h47.165v-1h-47.165v1Zm.5.273v-.773h-1v.773h1Zm-3.593.5h3.093v-1h-3.093v1Zm-.5-3.593v3.093h1v-3.093h-1Zm1.273-.5h-.773v1h.773v-1Zm-.5-16.51v17.01h1v-17.01h-1Zm-.273.5h.773v-1h-.773v1Zm-.5-3.593v3.093h1v-3.093h-1Z" fill="#000"/><path stroke="#CFCFCF" d="M507.868 78.867v17.01M511.868 78.867v17.01M515.868 78.867v17.01M519.868 78.867v17.01M523.868 78.867v17.01M527.868 78.867v17.01M531.868 78.867v17.01M535.868 78.867v17.01M539.868 78.867v17.01M543.868 78.867v17.01M547.868 78.867v17.01M551.868 78.867v17.01M555.868 78.867v17.01M559.868 78.867v17.01M563.868 78.867v17.01M567.868 78.867v17.01"/><path d="M507.368 79.867h60v-2h-60v2Zm60 15.01h-60v2h60v-2Z" fill="#CFCFCF" mask="url('#path-227-inside-12_1383_56603')"/><path fill-rule="evenodd" clip-rule="evenodd" d="M341.751 101.289h3.093v.773h47.164v-.773h3.093v3.093h-.773v17.01h.773v3.093h-3.093v-.773h-47.164v.773h-3.093v-3.093h.773v-17.01h-.773v-3.093Z" fill="#fff"/><path d="M344.844 101.289h.5a.5.5 0 0 0-.5-.5v.5Zm-3.093 0v-.5a.5.5 0 0 0-.5.5h.5Zm3.093.773h-.5a.5.5 0 0 0 .5.5v-.5Zm47.164 0v.5a.5.5 0 0 0 .5-.5h-.5Zm0-.773v-.5a.5.5 0 0 0-.5.5h.5Zm3.093 0h.5a.5.5 0 0 0-.5-.5v.5Zm0 3.093v.5a.5.5 0 0 0 .5-.5h-.5Zm-.773 0v-.5a.5.5 0 0 0-.5.5h.5Zm0 17.01h-.5a.5.5 0 0 0 .5.5v-.5Zm.773 0h.5a.5.5 0 0 0-.5-.5v.5Zm0 3.093v.5a.5.5 0 0 0 .5-.5h-.5Zm-3.093 0h-.5a.5.5 0 0 0 .5.5v-.5Zm0-.773h.5c0-.277-.223-.5-.5-.5v.5Zm-47.164 0v-.5a.5.5 0 0 0-.5.5h.5Zm0 .773v.5a.5.5 0 0 0 .5-.5h-.5Zm-3.093 0h-.5a.5.5 0 0 0 .5.5v-.5Zm0-3.093v-.5a.5.5 0 0 0-.5.5h.5Zm.773 0v.5a.5.5 0 0 0 .5-.5h-.5Zm0-17.01h.5a.5.5 0 0 0-.5-.5v.5Zm-.773 0h-.5a.5.5 0 0 0 .5.5v-.5Zm3.093-3.593h-3.093v1h3.093v-1Zm.5 1.273v-.773h-1v.773h1Zm46.664-.5h-47.164v1h47.164v-1Zm-.5-.273v.773h1v-.773h-1Zm3.593-.5h-3.093v1h3.093v-1Zm.5 3.593v-3.093h-1v3.093h1Zm-1.273.5h.773v-1h-.773v1Zm.5 16.51v-17.01h-1v17.01h1Zm-.5.5h.773v-1h-.773v1Zm.273-.5v3.093h1v-3.093h-1Zm.5 2.593h-3.093v1h3.093v-1Zm-2.593.5v-.773h-1v.773h1Zm-47.664-.273h47.164v-1h-47.164v1Zm.5.273v-.773h-1v.773h1Zm-3.593.5h3.093v-1h-3.093v1Zm-.5-3.593v3.093h1v-3.093h-1Zm1.273-.5h-.773v1h.773v-1Zm-.5-16.51v17.01h1v-17.01h-1Zm-.273.5h.773v-1h-.773v1Zm-.5-3.593v3.093h1v-3.093h-1Z" fill="#000"/><path stroke="#CFCFCF" d="M338.539 104.383v17.01M342.539 104.383v17.01M346.539 104.383v17.01M350.539 104.383v17.01M354.539 104.383v17.01M358.539 104.383v17.01M362.539 104.383v17.01M366.539 104.383v17.01M370.539 104.383v17.01M374.539 104.383v17.01M378.539 104.383v17.01M382.539 104.383v17.01M386.539 104.383v17.01M390.539 104.383v17.01M394.539 104.383v17.01M398.539 104.383v17.01"/><path d="M338.039 105.383h60v-2h-60v2Zm60 15.01h-60v2h60v-2Z" fill="#CFCFCF" mask="url('#path-247-inside-13_1383_56603')"/><path fill-rule="evenodd" clip-rule="evenodd" d="M398.194 101.289h3.093v.773h47.165v-.773h3.093v3.093h-.774v17.01h.774v3.093h-3.093v-.773h-47.165v.773h-3.093v-3.093h.774v-17.01h-.774v-3.093Z" fill="#fff"/><path d="M401.287 101.289h.5a.5.5 0 0 0-.5-.5v.5Zm-3.093 0v-.5a.5.5 0 0 0-.5.5h.5Zm3.093.773h-.5a.5.5 0 0 0 .5.5v-.5Zm47.165 0v.5a.5.5 0 0 0 .5-.5h-.5Zm0-.773v-.5a.5.5 0 0 0-.5.5h.5Zm3.093 0h.5a.5.5 0 0 0-.5-.5v.5Zm0 3.093v.5a.5.5 0 0 0 .5-.5h-.5Zm-.774 0v-.5a.5.5 0 0 0-.5.5h.5Zm0 17.01h-.5a.5.5 0 0 0 .5.5v-.5Zm.774 0h.5a.5.5 0 0 0-.5-.5v.5Zm0 3.093v.5a.5.5 0 0 0 .5-.5h-.5Zm-3.093 0h-.5a.5.5 0 0 0 .5.5v-.5Zm0-.773h.5a.5.5 0 0 0-.5-.5v.5Zm-47.165 0v-.5a.5.5 0 0 0-.5.5h.5Zm0 .773v.5a.5.5 0 0 0 .5-.5h-.5Zm-3.093 0h-.5a.5.5 0 0 0 .5.5v-.5Zm0-3.093v-.5a.5.5 0 0 0-.5.5h.5Zm.774 0v.5a.5.5 0 0 0 .5-.5h-.5Zm0-17.01h.5a.5.5 0 0 0-.5-.5v.5Zm-.774 0h-.5a.5.5 0 0 0 .5.5v-.5Zm3.093-3.593h-3.093v1h3.093v-1Zm.5 1.273v-.773h-1v.773h1Zm46.665-.5h-47.165v1h47.165v-1Zm-.5-.273v.773h1v-.773h-1Zm3.593-.5h-3.093v1h3.093v-1Zm.5 3.593v-3.093h-1v3.093h1Zm-1.274.5h.774v-1h-.774v1Zm.5 16.51v-17.01h-1v17.01h1Zm-.5.5h.774v-1h-.774v1Zm.274-.5v3.093h1v-3.093h-1Zm.5 2.593h-3.093v1h3.093v-1Zm-2.593.5v-.773h-1v.773h1Zm-47.665-.273h47.165v-1h-47.165v1Zm.5.273v-.773h-1v.773h1Zm-3.593.5h3.093v-1h-3.093v1Zm-.5-3.593v3.093h1v-3.093h-1Zm1.274-.5h-.774v1h.774v-1Zm-.5-16.51v17.01h1v-17.01h-1Zm-.274.5h.774v-1h-.774v1Zm-.5-3.593v3.093h1v-3.093h-1Z" fill="#000"/><path stroke="#CFCFCF" d="M394.982 104.383v17.01M398.982 104.383v17.01M402.982 104.383v17.01M406.982 104.383v17.01M410.982 104.383v17.01M414.982 104.383v17.01M418.982 104.383v17.01M422.982 104.383v17.01M426.982 104.383v17.01M430.982 104.383v17.01M434.982 104.383v17.01M438.982 104.383v17.01M442.982 104.383v17.01M446.982 104.383v17.01M450.982 104.383v17.01M454.982 104.383v17.01"/><path d="M394.482 105.383h60v-2h-60v2Zm60 15.01h-60v2h60v-2Z" fill="#CFCFCF" mask="url('#path-267-inside-14_1383_56603')"/><path fill-rule="evenodd" clip-rule="evenodd" d="M454.637 101.289h3.092v.773h47.165v-.773h3.093v3.093h-.773v17.01h.773v3.093h-3.093v-.773h-47.165v.773h-3.092v-3.093h.773v-17.01h-.773v-3.093Z" fill="#fff"/><path d="M457.729 101.289h.5a.5.5 0 0 0-.5-.5v.5Zm-3.092 0v-.5a.5.5 0 0 0-.5.5h.5Zm3.092.773h-.5a.5.5 0 0 0 .5.5v-.5Zm47.165 0v.5a.5.5 0 0 0 .5-.5h-.5Zm0-.773v-.5a.5.5 0 0 0-.5.5h.5Zm3.093 0h.5a.5.5 0 0 0-.5-.5v.5Zm0 3.093v.5a.5.5 0 0 0 .5-.5h-.5Zm-.773 0v-.5a.5.5 0 0 0-.5.5h.5Zm0 17.01h-.5a.5.5 0 0 0 .5.5v-.5Zm.773 0h.5a.5.5 0 0 0-.5-.5v.5Zm0 3.093v.5a.5.5 0 0 0 .5-.5h-.5Zm-3.093 0h-.5a.5.5 0 0 0 .5.5v-.5Zm0-.773h.5a.5.5 0 0 0-.5-.5v.5Zm-47.165 0v-.5a.5.5 0 0 0-.5.5h.5Zm0 .773v.5a.5.5 0 0 0 .5-.5h-.5Zm-3.092 0h-.5a.5.5 0 0 0 .5.5v-.5Zm0-3.093v-.5a.5.5 0 0 0-.5.5h.5Zm.773 0v.5a.5.5 0 0 0 .5-.5h-.5Zm0-17.01h.5a.5.5 0 0 0-.5-.5v.5Zm-.773 0h-.5a.5.5 0 0 0 .5.5v-.5Zm3.092-3.593h-3.092v1h3.092v-1Zm.5 1.273v-.773h-1v.773h1Zm46.665-.5h-47.165v1h47.165v-1Zm-.5-.273v.773h1v-.773h-1Zm3.593-.5h-3.093v1h3.093v-1Zm.5 3.593v-3.093h-1v3.093h1Zm-1.273.5h.773v-1h-.773v1Zm.5 16.51v-17.01h-1v17.01h1Zm-.5.5h.773v-1h-.773v1Zm.273-.5v3.093h1v-3.093h-1Zm.5 2.593h-3.093v1h3.093v-1Zm-2.593.5v-.773h-1v.773h1Zm-47.665-.273h47.165v-1h-47.165v1Zm.5.273v-.773h-1v.773h1Zm-3.592.5h3.092v-1h-3.092v1Zm-.5-3.593v3.093h1v-3.093h-1Zm1.273-.5h-.773v1h.773v-1Zm-.5-16.51v17.01h1v-17.01h-1Zm-.273.5h.773v-1h-.773v1Zm-.5-3.593v3.093h1v-3.093h-1Z" fill="#000"/><path stroke="#CFCFCF" d="M451.425 104.383v17.01M455.425 104.383v17.01M459.425 104.383v17.01M463.425 104.383v17.01M467.425 104.383v17.01M471.425 104.383v17.01M475.425 104.383v17.01M479.425 104.383v17.01M483.425 104.383v17.01M487.425 104.383v17.01M491.425 104.383v17.01M495.425 104.383v17.01M499.425 104.383v17.01M503.425 104.383v17.01M507.425 104.383v17.01M511.425 104.383v17.01"/><path d="M450.925 105.383h60v-2h-60v2Zm60 15.01h-60v2h60v-2Z" fill="#CFCFCF" mask="url('#path-287-inside-15_1383_56603')"/><path fill-rule="evenodd" clip-rule="evenodd" d="M511.08 101.289h3.093v.773h47.165v-.773h3.092v3.093h-.773v17.01h.773v3.093h-3.092v-.773h-47.165v.773h-3.093v-3.093h.773v-17.01h-.773v-3.093Z" fill="#fff"/><path d="M514.173 101.289h.5a.5.5 0 0 0-.5-.5v.5Zm-3.093 0v-.5a.5.5 0 0 0-.5.5h.5Zm3.093.773h-.5a.5.5 0 0 0 .5.5v-.5Zm47.165 0v.5a.5.5 0 0 0 .5-.5h-.5Zm0-.773v-.5a.5.5 0 0 0-.5.5h.5Zm3.092 0h.5a.5.5 0 0 0-.5-.5v.5Zm0 3.093v.5a.5.5 0 0 0 .5-.5h-.5Zm-.773 0v-.5a.5.5 0 0 0-.5.5h.5Zm0 17.01h-.5a.5.5 0 0 0 .5.5v-.5Zm.773 0h.5a.5.5 0 0 0-.5-.5v.5Zm0 3.093v.5a.5.5 0 0 0 .5-.5h-.5Zm-3.092 0h-.5a.5.5 0 0 0 .5.5v-.5Zm0-.773h.5a.5.5 0 0 0-.5-.5v.5Zm-47.165 0v-.5a.5.5 0 0 0-.5.5h.5Zm0 .773v.5a.5.5 0 0 0 .5-.5h-.5Zm-3.093 0h-.5a.5.5 0 0 0 .5.5v-.5Zm0-3.093v-.5a.5.5 0 0 0-.5.5h.5Zm.773 0v.5a.5.5 0 0 0 .5-.5h-.5Zm0-17.01h.5a.5.5 0 0 0-.5-.5v.5Zm-.773 0h-.5a.5.5 0 0 0 .5.5v-.5Zm3.093-3.593h-3.093v1h3.093v-1Zm.5 1.273v-.773h-1v.773h1Zm46.665-.5h-47.165v1h47.165v-1Zm-.5-.273v.773h1v-.773h-1Zm3.592-.5h-3.092v1h3.092v-1Zm.5 3.593v-3.093h-1v3.093h1Zm-1.273.5h.773v-1h-.773v1Zm.5 16.51v-17.01h-1v17.01h1Zm-.5.5h.773v-1h-.773v1Zm.273-.5v3.093h1v-3.093h-1Zm.5 2.593h-3.092v1h3.092v-1Zm-2.592.5v-.773h-1v.773h1Zm-47.665-.273h47.165v-1h-47.165v1Zm.5.273v-.773h-1v.773h1Zm-3.593.5h3.093v-1h-3.093v1Zm-.5-3.593v3.093h1v-3.093h-1Zm1.273-.5h-.773v1h.773v-1Zm-.5-16.51v17.01h1v-17.01h-1Zm-.273.5h.773v-1h-.773v1Zm-.5-3.593v3.093h1v-3.093h-1Z" fill="#000"/><path stroke="#CFCFCF" d="M507.868 104.383v17.01M511.868 104.383v17.01M515.868 104.383v17.01M519.868 104.383v17.01M523.868 104.383v17.01M527.868 104.383v17.01M531.868 104.383v17.01M535.868 104.383v17.01M539.868 104.383v17.01M543.868 104.383v17.01M547.868 104.383v17.01M551.868 104.383v17.01M555.868 104.383v17.01M559.868 104.383v17.01M563.868 104.383v17.01M567.868 104.383v17.01"/><path d="M507.368 105.383h60v-2h-60v2Zm60 15.01h-60v2h60v-2Z" fill="#CFCFCF" mask="url('#path-307-inside-16_1383_56603')"/><path d="M263.658 92.008c0 1.463-.006 2.613.174 2.26.573-1.106 1.653-1.73 3.08-1.73h1.108v.232h.81v-.22h3.685v.672h2.143c.465 0 .585-.837.598-1.177v-.065c-.013-.34-.133-1.177-.598-1.177h-2.143v.673h-3.685v-.22h-.81v.232h-1.108c-1.427 0-2.507-.625-3.08-1.731-.18-.353-.174.797-.174 2.26v-.009ZM263.658 99.739c0 1.462-.006 2.612.174 2.259.573-1.105 1.653-1.73 3.08-1.73h1.108v.232h.81v-.22h3.685v.673h2.143c.465 0 .585-.838.598-1.178v-.064c-.013-.34-.133-1.178-.598-1.178h-2.143v.673h-3.685v-.22h-.81v.232h-1.108c-1.427 0-2.507-.625-3.08-1.73-.18-.353-.174.797-.174 2.259v-.008Z" stroke="#000" stroke-linejoin="round"/><path d="M263.659 92.012h-6.732a1 1 0 0 0-1 1v5.732a1 1 0 0 0 1 1h6.732" stroke="#000"/><path d="M263.658 92.785v6.186" stroke="#000" stroke-linecap="round"/><circle cx="260.785" cy="74.225" stroke="#000" r="5.412"/><path fill="#fff" stroke="#000" d="m270.837 63.336.933.933-21.162 21.163-.933-.934z"/><rect x="289.4" y="28.836" width="38.979" height="92.329" rx="7" fill="#fff" stroke="#000" stroke-width="2"/><path fill-rule="evenodd" clip-rule="evenodd" d="M288.4 81.188a6.185 6.185 0 1 0 0-12.372v1a5.186 5.186 0 1 1 0 10.371v1Z" fill="#000"/><rect x="252.561" y="32.203" width="6.732" height="10.598" rx=".5" stroke="#000"/><rect x="252.561" y="46.117" width="6.732" height="10.598" rx=".5" stroke="#000"/><rect x="252.561" y="103.336" width="6.732" height="10.598" rx=".5" stroke="#000"/><path stroke="#000" d="M129.896 74.789h160.051M52.173 146.129l71.733-68.433M52.173 4.633l72.121 68.046"/><rect x="122.516" y="78.09" width="6.186" height="7.755" rx="1" transform="rotate(-90 122.516 78.09)" fill="#000"/><mask id="path-340-inside-17_1383_56603" fill="#fff"><path fill-rule="evenodd" clip-rule="evenodd" d="M6.928 67.924c.603 1.022.917 2.376.8 3.827-.107 1.33-.558 2.514-1.216 3.394.658.88 1.109 2.065 1.216 3.395.117 1.45-.197 2.805-.8 3.827.842.834 1.477 2.08 1.704 3.54.178 1.144.08 2.25-.233 3.192.849.783 1.517 1.963 1.81 3.368.239 1.139.196 2.255-.073 3.22.958.717 1.753 1.897 2.148 3.353.305 1.122.327 2.24.115 3.221 1.012.6 1.913 1.663 2.457 3.04.493 1.248.608 2.537.399 3.652 1.087.576 2.065 1.683 2.643 3.144.47 1.189.596 2.415.426 3.493 1.281.321 2.558 1.326 3.404 2.835.577 1.03.865 2.136.88 3.165 1.244.172 2.55.935 3.545 2.202.74.941 1.193 2.013 1.351 3.048 1.314-.118 2.823.417 4.068 1.575 1.087 1.01 1.759 2.295 1.956 3.537 1.116.05 2.322.522 3.371 1.412 1.165.989 1.9 2.291 2.126 3.56 1.291-.155 2.79.31 4.06 1.388.987.838 1.666 1.902 1.987 2.98 1.4-.37 3.23-.122 4.991.804 2.985 1.57 3.692 6.529 3.692 6.529s-4.133 2.414-7.118.845c-1.672-.88-2.926-2.183-3.539-3.518-1.433.5-3.301.091-4.835-1.21-1.164-.988-1.9-2.291-2.125-3.56-1.292.155-2.79-.31-4.06-1.387-1.178-1-1.917-2.321-2.133-3.604-1.157-.066-2.404-.6-3.461-1.583-1.02-.949-1.675-2.141-1.914-3.311-1.462.111-3.135-.685-4.348-2.229-.855-1.088-1.326-2.349-1.404-3.527-1.388-.222-2.813-1.266-3.73-2.903-.715-1.273-.986-2.664-.847-3.88-1.402-.375-2.75-1.648-3.47-3.473-.494-1.247-.61-2.537-.4-3.652-1.086-.576-2.065-1.683-2.642-3.143-.485-1.227-.605-2.494-.41-3.597-1.096-.683-2.025-1.957-2.463-3.57-.327-1.203-.328-2.402-.065-3.432-.998-.768-1.799-2.061-2.129-3.637-.252-1.206-.189-2.387.124-3.39-.88-.832-1.548-2.11-1.782-3.614-.241-1.55.026-3.03.646-4.131-.878-.903-1.497-2.285-1.626-3.876-.127-1.583.257-3.05.97-4.097-.713-1.048-1.097-2.515-.97-4.098.128-1.59.748-2.973 1.626-3.876-.62-1.1-.887-2.58-.646-4.131.234-1.505.901-2.783 1.781-3.615-.312-1.002-.375-2.183-.123-3.39.33-1.575 1.13-2.868 2.13-3.636-.264-1.03-.263-2.229.064-3.432.438-1.613 1.367-2.887 2.463-3.57-.195-1.103-.075-2.37.41-3.597.577-1.46 1.555-2.567 2.642-3.143-.21-1.116-.094-2.405.4-3.653.72-1.825 2.067-3.097 3.47-3.472-.14-1.216.132-2.607.846-3.88.918-1.637 2.343-2.681 3.731-2.903.078-1.178.549-2.44 1.403-3.527 1.214-1.544 2.887-2.34 4.349-2.23.239-1.17.893-2.361 1.914-3.31 1.057-.983 2.304-1.517 3.46-1.583.217-1.283.956-2.604 2.133-3.604 1.27-1.077 2.769-1.542 4.06-1.387.226-1.27.962-2.572 2.126-3.56 1.534-1.301 3.401-1.71 4.835-1.21C43.71 3.004 44.965 1.7 46.637.82c2.985-1.57 7.117.845 7.117.845s-.706 4.96-3.69 6.529c-1.761.926-3.592 1.174-4.992.804-.32 1.078-1 2.142-1.987 2.98-1.27 1.078-2.769 1.543-4.06 1.388-.226 1.269-.961 2.571-2.126 3.56-1.05.89-2.255 1.362-3.372 1.412-.197 1.242-.868 2.527-1.955 3.537-1.245 1.158-2.754 1.693-4.068 1.575-.158 1.035-.61 2.107-1.35 3.048-.997 1.267-2.302 2.03-3.546 2.202-.015 1.029-.303 2.135-.88 3.165-.846 1.509-2.123 2.513-3.404 2.835.17 1.078.043 2.304-.427 3.493-.577 1.46-1.555 2.567-2.642 3.143.21 1.116.094 2.405-.399 3.653-.544 1.377-1.445 2.44-2.458 3.04.213.98.19 2.099-.114 3.221-.396 1.456-1.19 2.636-2.148 3.354.269.964.312 2.08.073 3.22-.294 1.404-.961 2.583-1.81 3.367.313.943.411 2.048.233 3.191-.227 1.461-.862 2.707-1.704 3.54Z"/></mask><path fill-rule="evenodd" clip-rule="evenodd" d="M6.928 67.924c.603 1.022.917 2.376.8 3.827-.107 1.33-.558 2.514-1.216 3.394.658.88 1.109 2.065 1.216 3.395.117 1.45-.197 2.805-.8 3.827.842.834 1.477 2.08 1.704 3.54.178 1.144.08 2.25-.233 3.192.849.783 1.517 1.963 1.81 3.368.239 1.139.196 2.255-.073 3.22.958.717 1.753 1.897 2.148 3.353.305 1.122.327 2.24.115 3.221 1.012.6 1.913 1.663 2.457 3.04.493 1.248.608 2.537.399 3.652 1.087.576 2.065 1.683 2.643 3.144.47 1.189.596 2.415.426 3.493 1.281.321 2.558 1.326 3.404 2.835.577 1.03.865 2.136.88 3.165 1.244.172 2.55.935 3.545 2.202.74.941 1.193 2.013 1.351 3.048 1.314-.118 2.823.417 4.068 1.575 1.087 1.01 1.759 2.295 1.956 3.537 1.116.05 2.322.522 3.371 1.412 1.165.989 1.9 2.291 2.126 3.56 1.291-.155 2.79.31 4.06 1.388.987.838 1.666 1.902 1.987 2.98 1.4-.37 3.23-.122 4.991.804 2.985 1.57 3.692 6.529 3.692 6.529s-4.133 2.414-7.118.845c-1.672-.88-2.926-2.183-3.539-3.518-1.433.5-3.301.091-4.835-1.21-1.164-.988-1.9-2.291-2.125-3.56-1.292.155-2.79-.31-4.06-1.387-1.178-1-1.917-2.321-2.133-3.604-1.157-.066-2.404-.6-3.461-1.583-1.02-.949-1.675-2.141-1.914-3.311-1.462.111-3.135-.685-4.348-2.229-.855-1.088-1.326-2.349-1.404-3.527-1.388-.222-2.813-1.266-3.73-2.903-.715-1.273-.986-2.664-.847-3.88-1.402-.375-2.75-1.648-3.47-3.473-.494-1.247-.61-2.537-.4-3.652-1.086-.576-2.065-1.683-2.642-3.143-.485-1.227-.605-2.494-.41-3.597-1.096-.683-2.025-1.957-2.463-3.57-.327-1.203-.328-2.402-.065-3.432-.998-.768-1.799-2.061-2.129-3.637-.252-1.206-.189-2.387.124-3.39-.88-.832-1.548-2.11-1.782-3.614-.241-1.55.026-3.03.646-4.131-.878-.903-1.497-2.285-1.626-3.876-.127-1.583.257-3.05.97-4.097-.713-1.048-1.097-2.515-.97-4.098.128-1.59.748-2.973 1.626-3.876-.62-1.1-.887-2.58-.646-4.131.234-1.505.901-2.783 1.781-3.615-.312-1.002-.375-2.183-.123-3.39.33-1.575 1.13-2.868 2.13-3.636-.264-1.03-.263-2.229.064-3.432.438-1.613 1.367-2.887 2.463-3.57-.195-1.103-.075-2.37.41-3.597.577-1.46 1.555-2.567 2.642-3.143-.21-1.116-.094-2.405.4-3.653.72-1.825 2.067-3.097 3.47-3.472-.14-1.216.132-2.607.846-3.88.918-1.637 2.343-2.681 3.731-2.903.078-1.178.549-2.44 1.403-3.527 1.214-1.544 2.887-2.34 4.349-2.23.239-1.17.893-2.361 1.914-3.31 1.057-.983 2.304-1.517 3.46-1.583.217-1.283.956-2.604 2.133-3.604 1.27-1.077 2.769-1.542 4.06-1.387.226-1.27.962-2.572 2.126-3.56 1.534-1.301 3.401-1.71 4.835-1.21C43.71 3.004 44.965 1.7 46.637.82c2.985-1.57 7.117.845 7.117.845s-.706 4.96-3.69 6.529c-1.761.926-3.592 1.174-4.992.804-.32 1.078-1 2.142-1.987 2.98-1.27 1.078-2.769 1.543-4.06 1.388-.226 1.269-.961 2.571-2.126 3.56-1.05.89-2.255 1.362-3.372 1.412-.197 1.242-.868 2.527-1.955 3.537-1.245 1.158-2.754 1.693-4.068 1.575-.158 1.035-.61 2.107-1.35 3.048-.997 1.267-2.302 2.03-3.546 2.202-.015 1.029-.303 2.135-.88 3.165-.846 1.509-2.123 2.513-3.404 2.835.17 1.078.043 2.304-.427 3.493-.577 1.46-1.555 2.567-2.642 3.143.21 1.116.094 2.405-.399 3.653-.544 1.377-1.445 2.44-2.458 3.04.213.98.19 2.099-.114 3.221-.396 1.456-1.19 2.636-2.148 3.354.269.964.312 2.08.073 3.22-.294 1.404-.961 2.583-1.81 3.367.313.943.411 2.048.233 3.191-.227 1.461-.862 2.707-1.704 3.54Z" fill="#CFCFCF"/><path d="m7.728 71.751.498.04-.498-.04Zm-.8-3.828-.351-.355-.277.274.198.335.43-.254Zm-.416 7.222-.4-.299-.224.3.224.299.4-.3Zm1.216 3.395.498-.04-.498.04Zm-.8 3.827-.43-.254-.198.336.277.274.351-.356Zm1.704 3.54-.494.077.494-.077ZM8.4 89.1l-.475-.157-.101.306.237.218.339-.367Zm1.81 3.368.49-.103-.49.103Zm-.073 3.22-.481-.135-.092.329.273.205.3-.4Zm2.148 3.353-.482.13.482-.13Zm.115 3.221-.49-.105-.075.352.31.184.255-.431Zm2.457 3.04-.465.184.465-.184Zm.399 3.652-.492-.092-.067.362.325.172.234-.442Zm2.643 3.144.465-.184-.465.184Zm.426 3.493-.494-.078-.071.451.443.112.122-.485Zm3.404 2.835.436-.245-.436.245Zm.88 3.165-.5.007.007.429.425.059.069-.495Zm3.545 2.202.393-.309-.393.309Zm1.351 3.048-.494.076.071.465.468-.043-.045-.498Zm4.068 1.575-.34.366.34-.366Zm1.956 3.537-.494.079.064.403.407.018.023-.5Zm3.371 1.412.324-.381-.324.381Zm2.126 3.56-.493.088.083.465.47-.056-.06-.497Zm4.06 1.388.323-.382-.323.382Zm1.987 2.98-.479.143.138.464.47-.124-.129-.483Zm4.991.804-.232.443.232-.443Zm3.692 6.529.252.432.29-.17-.047-.333-.495.071Zm-7.118.845-.233.442.233-.442Zm-3.539-3.518.454-.209-.19-.413-.428.15.164.472Zm-4.835-1.21.324-.381-.324.381Zm-2.125-3.56.492-.087-.083-.466-.469.057.06.496Zm-4.06-1.387.323-.382-.323.382Zm-2.133-3.604.493-.083-.067-.393-.398-.023-.028.499Zm-3.461-1.583-.34.366.34-.366Zm-1.914-3.311.49-.1-.088-.432-.44.033.038.499Zm-4.348-2.229-.393.309.393-.309Zm-1.404-3.527.5-.033-.027-.398-.394-.063-.079.494Zm-3.73-2.903-.437.245.436-.245Zm-.847-3.88.497.057.05-.429-.418-.111-.129.483Zm-3.47-3.473.464-.183-.465.183Zm-.4-3.652.492.092.068-.361-.325-.173-.235.442ZM7.73 108.49l-.465.183.465-.183Zm-.41-3.597.493.087.059-.332-.287-.179-.264.424Zm-2.463-3.57.483-.131-.483.131Zm-.065-3.432.485.124.081-.32-.26-.2-.306.396Zm-2.129-3.637-.489.103.49-.103Zm.124-3.39.477.15.093-.298-.227-.215-.343.364ZM1.004 87.25l-.494.077.494-.077Zm.646-4.131.436.245.184-.326-.261-.268-.359.349ZM.024 79.243l-.498.04.498-.04Zm.97-4.097.414.28.191-.28-.191-.282-.413.282Zm-.97-4.098-.498-.04.498.04Zm1.626-3.876.359.349.26-.269-.183-.325-.436.245Zm-.646-4.131.494.077-.494-.077Zm1.781-3.615.344.363.227-.214-.093-.298-.478.15Zm-.123-3.39-.49-.102.49.102Zm2.13-3.636.304.397.261-.201-.081-.32-.485.124Zm.064-3.432-.482-.132.482.132Zm2.463-3.57.265.424.287-.179-.06-.333-.492.088Zm.41-3.597.465.184-.465-.184Zm2.642-3.143.234.442.326-.173-.068-.361-.492.092Zm.4-3.653-.466-.183.465.183Zm3.47-3.472.13.483.416-.111-.05-.429-.496.057Zm.846-3.88-.436-.245.436.245Zm3.731-2.903.079.494.394-.063.026-.398-.499-.033Zm1.403-3.527-.393-.309.393.309Zm4.349-2.23-.038.5.44.033.088-.432-.49-.1Zm1.914-3.31.34.366-.34-.366Zm3.46-1.583.03.499.397-.023.067-.393-.493-.083Zm2.133-3.604-.323-.38.323.38Zm4.06-1.387-.06.496.47.057.083-.466-.492-.087Zm2.126-3.56-.324-.381.324.381Zm4.835-1.21-.165.472.43.15.19-.413-.455-.21ZM46.637.82l.233.443-.233-.443Zm7.117.845.495.07.048-.332-.29-.17-.252.432Zm-3.69 6.529-.233-.443.232.443Zm-4.992.804.128-.484-.469-.123-.138.464.48.143Zm-1.987 2.98.323.381-.323-.38Zm-4.06 1.388.06-.497-.47-.056-.083.465.492.088Zm-2.126 3.56.324.38-.324-.38Zm-3.372 1.412-.022-.5-.407.018-.064.403.493.079Zm-1.955 3.537.34.366-.34-.366Zm-4.068 1.575.045-.498-.468-.043-.071.465.494.076Zm-1.35 3.048.392.31-.393-.31Zm-3.546 2.202-.068-.495-.425.059-.007.429.5.007Zm-.88 3.165-.436-.244.436.244Zm-3.404 2.835-.122-.485-.443.111.071.452.494-.078Zm-.427 3.493-.464-.184.465.184Zm-2.642 3.143-.234-.441-.326.172.068.362.492-.093Zm-.399 3.653.465.184-.465-.184Zm-2.458 3.04-.254-.43-.31.183.076.352.488-.105Zm-.114 3.221-.483-.13.483.13Zm-2.148 3.354-.3-.4-.273.205.092.329.481-.134Zm.073 3.22-.489-.103.49.102ZM8.4 61.191l-.34-.367-.236.218.101.306.475-.157Zm.233 3.191-.494-.076.494.076Zm-.406 7.408c.125-1.543-.207-3.001-.867-4.121l-.861.507c.545.926.841 2.175.731 3.534l.997.08Zm-1.313 3.654c.719-.963 1.2-2.238 1.313-3.654l-.997-.08c-.1 1.245-.52 2.337-1.117 3.135l.8.599ZM8.226 78.5c-.114-1.416-.594-2.692-1.313-3.654l-.801.599c.596.798 1.017 1.89 1.118 3.135l.996-.08ZM7.36 82.62c.66-1.12.992-2.578.867-4.121l-.996.08c.11 1.359-.187 2.608-.732 3.534l.861.507Zm1.767 3.21c-.241-1.554-.92-2.902-1.846-3.819l-.703.71c.757.75 1.349 1.895 1.561 3.262l.988-.153Zm-.253 3.425c.34-1.022.443-2.207.253-3.425l-.988.153c.167 1.07.073 2.094-.214 2.958l.95.315Zm1.826 3.108c-.313-1.494-1.027-2.77-1.961-3.632l-.678.734c.764.706 1.385 1.789 1.66 3.103l.979-.205Zm-.08 3.456c.29-1.045.334-2.242.08-3.456l-.979.205c.223 1.065.18 2.1-.065 2.983l.963.268Zm2.148 3.088c-.421-1.548-1.273-2.828-2.33-3.622l-.6.8c.857.643 1.594 1.722 1.965 3.085l.965-.263Zm.12 3.459c.23-1.063.205-2.262-.12-3.459l-.965.263c.284 1.048.302 2.086.108 2.985l.977.211Zm2.434 2.75c-.58-1.467-1.548-2.623-2.668-3.286l-.51.861c.906.536 1.739 1.505 2.248 2.793l.93-.368Zm.425 3.929c.228-1.214.1-2.599-.425-3.929l-.93.368c.46 1.165.564 2.359.373 3.376l.982.185Zm2.617 2.867c-.615-1.555-1.667-2.762-2.874-3.401l-.468.883c.967.513 1.871 1.519 2.412 2.886l.93-.368Zm.455 3.755c.185-1.171.045-2.488-.455-3.755l-.93.368c.438 1.11.553 2.246.397 3.231l.988.156Zm3.346 2.512c-.9-1.606-2.28-2.714-3.718-3.075l-.244.97c1.125.282 2.299 1.183 3.09 2.594l.872-.489Zm.944 3.402c-.016-1.114-.327-2.302-.944-3.402l-.872.489c.538.96.802 1.985.817 2.928l1-.015Zm3.438 1.901c-1.063-1.353-2.478-2.196-3.869-2.389l-.137.991c1.097.152 2.292.835 3.22 2.016l.786-.618Zm1.452 3.282c-.171-1.123-.66-2.275-1.452-3.282l-.786.618c.688.875 1.105 1.867 1.25 2.815l.988-.151Zm3.915 1.284c-1.332-1.238-2.976-1.84-4.454-1.707l.09.996c1.15-.103 2.524.365 3.683 1.443l.68-.732Zm2.108 3.825c-.215-1.359-.945-2.744-2.108-3.825l-.681.732c1.01.939 1.623 2.124 1.802 3.25l.987-.157Zm3.202 1.109c-1.125-.954-2.435-1.476-3.673-1.53l-.044.999c.993.044 2.096.467 3.07 1.294l.647-.763Zm2.294 3.854c-.247-1.391-1.047-2.795-2.294-3.854l-.647.763c1.081.917 1.752 2.118 1.956 3.266l.985-.175Zm3.891 1.093c-1.359-1.153-2.992-1.677-4.443-1.502l.12.993c1.132-.137 2.495.27 3.676 1.272l.647-.763Zm2.143 3.219c-.35-1.174-1.084-2.32-2.143-3.219l-.647.763c.916.777 1.54 1.76 1.832 2.742l.958-.286Zm-.35.626c1.252-.331 2.953-.118 4.63.764l.465-.885c-1.844-.971-3.804-1.254-5.352-.845l.256.966Zm4.63.764c1.326.697 2.192 2.183 2.73 3.589a13.864 13.864 0 0 1 .691 2.52l.006.038.001.008v.002l.496-.071.495-.071v-.002l-.001-.003-.002-.013a3.374 3.374 0 0 0-.037-.216 14.852 14.852 0 0 0-.715-2.55c-.561-1.466-1.54-3.244-3.199-4.116l-.465.885Zm3.924 6.086-.252-.432-.002.001-.006.004-.031.017-.127.069a11.902 11.902 0 0 1-2.161.872c-1.367.396-2.988.565-4.306-.129l-.466.885c1.666.876 3.604.623 5.05.204a12.739 12.739 0 0 0 2.497-1.028l.04-.022a.064.064 0 0 1 .01-.006l.004-.002.001-.001-.251-.432Zm-6.885.402c-1.59-.836-2.757-2.064-3.318-3.284l-.908.418c.666 1.449 2.006 2.829 3.76 3.751l.466-.885Zm-8.93-3.904c1.636 1.389 3.685 1.872 5.323 1.301l-.33-.944c-1.23.428-2.915.095-4.346-1.119l-.647.762Zm-2.294-3.853c.247 1.39 1.046 2.794 2.294 3.853l.647-.762c-1.082-.918-1.753-2.119-1.957-3.266l-.985.175Zm-3.892-1.094c1.359 1.153 2.993 1.677 4.443 1.502l-.119-.992c-1.133.136-2.496-.271-3.677-1.273l-.647.763Zm-2.302-3.901c.237 1.406 1.04 2.83 2.302 3.901l.647-.763c-1.094-.928-1.768-2.146-1.963-3.305l-.986.167Zm-3.309-1.301c1.133 1.053 2.487 1.643 3.773 1.717l.057-.999c-1.026-.059-2.166-.537-3.148-1.45l-.681.732Zm-2.063-3.577c.26 1.277.97 2.561 2.064 3.577l.68-.732c-.947-.881-1.547-1.982-1.764-3.045l-.98.2Zm-4.251-2.02c1.291 1.643 3.114 2.545 4.779 2.419l-.076-.998c-1.258.096-2.782-.595-3.917-2.039l-.786.618Zm-1.51-3.804c.085 1.285.596 2.641 1.51 3.804l.786-.618c-.796-1.012-1.227-2.178-1.298-3.251l-.998.065Zm-3.668-2.69c.976 1.74 2.518 2.901 4.088 3.151l.158-.987c-1.206-.193-2.514-1.12-3.373-2.653l-.873.489Zm-.906-4.182c-.152 1.328.144 2.823.906 4.182l.873-.489c-.667-1.189-.912-2.475-.786-3.579l-.993-.114Zm-3.44-3.232c.765 1.936 2.217 3.347 3.807 3.772l.258-.966c-1.215-.325-2.457-1.459-3.135-3.173l-.93.367Zm-.425-3.928c-.228 1.213-.1 2.598.425 3.928l.93-.367c-.46-1.166-.563-2.359-.372-3.377l-.983-.184Zm-2.616-2.868c.614 1.555 1.666 2.762 2.873 3.402l.468-.884c-.966-.512-1.871-1.519-2.411-2.885l-.93.367Zm-.437-3.867c-.212 1.199-.08 2.56.437 3.867l.93-.367c-.453-1.146-.56-2.319-.382-3.326l-.985-.174Zm-2.453-3.352c.465 1.715 1.46 3.103 2.681 3.864l.529-.849c-.973-.606-1.835-1.765-2.245-3.277l-.965.262Zm-.067-3.687c-.286 1.118-.282 2.405.067 3.687l.965-.262c-.306-1.125-.304-2.236-.063-3.177l-.97-.248Zm-2.134-3.41c.35 1.675 1.207 3.08 2.314 3.93l.61-.793c-.891-.684-1.636-1.866-1.945-3.342l-.979.205Zm.135-3.64c-.339 1.087-.404 2.355-.135 3.64l.979-.205c-.236-1.128-.174-2.223.111-3.138l-.955-.298ZM.51 87.326c.249 1.6.961 2.983 1.932 3.901l.687-.727c-.79-.746-1.412-1.918-1.63-3.328l-.989.154Zm.705-4.454c-.682 1.21-.961 2.805-.705 4.454l.988-.154c-.226-1.453.029-2.817.588-3.809l-.871-.49Zm-1.69-3.59c.137 1.69.797 3.187 1.767 4.184l.717-.697c-.787-.809-1.366-2.076-1.486-3.568l-.997.08Zm1.056-4.419c-.785 1.154-1.19 2.737-1.055 4.419l.997-.08c-.12-1.484.243-2.834.885-3.776l-.827-.563Zm-1.055-3.856c-.136 1.682.27 3.265 1.055 4.419l.827-.563c-.642-.942-1.005-2.292-.885-3.776l-.997-.08Zm1.766-4.184c-.97.997-1.63 2.493-1.766 4.184l.997.08c.12-1.49.7-2.759 1.486-3.567l-.717-.698Zm-.782-3.86c-.256 1.649.023 3.244.705 4.454l.87-.491c-.558-.992-.813-2.356-.587-3.81l-.988-.153Zm1.932-3.901c-.97.918-1.683 2.3-1.932 3.901l.988.154c.22-1.41.841-2.582 1.631-3.329l-.687-.726Zm-.27-3.129c-.268 1.285-.203 2.553.136 3.64l.955-.297c-.286-.916-.347-2.01-.111-3.138l-.98-.205Zm2.314-3.93c-1.106.85-1.963 2.255-2.313 3.93l.979.205c.309-1.477 1.053-2.658 1.944-3.343l-.61-.792Zm-.112-3.167c-.349 1.282-.353 2.569-.067 3.687l.969-.248c-.241-.941-.243-2.052.063-3.177l-.965-.262Zm2.681-3.864c-1.22.76-2.216 2.15-2.681 3.864l.965.262c.41-1.512 1.272-2.671 2.245-3.277l-.529-.849Zm.209-3.355c-.517 1.307-.65 2.668-.437 3.867l.985-.175c-.178-1.006-.071-2.18.382-3.325l-.93-.367Zm2.873-3.402c-1.207.64-2.259 1.847-2.873 3.402l.93.367c.54-1.367 1.445-2.373 2.411-2.885l-.468-.884Zm.168-3.394c-.526 1.33-.653 2.714-.425 3.928l.983-.184c-.191-1.018-.089-2.211.372-3.377l-.93-.367Zm3.807-3.772c-1.59.425-3.042 1.836-3.807 3.772l.93.367c.678-1.714 1.92-2.848 3.135-3.173l-.258-.966Zm.54-3.642c-.763 1.359-1.06 2.854-.908 4.182l.994-.114c-.127-1.104.119-2.39.785-3.579l-.872-.489Zm4.087-3.152c-1.57.251-3.112 1.412-4.088 3.152l.872.49c.86-1.534 2.168-2.462 3.374-2.654l-.158-.988Zm1.09-3.342c-.915 1.163-1.425 2.52-1.51 3.803l.998.066c.07-1.073.502-2.239 1.298-3.251l-.787-.618Zm4.779-2.419c-1.665-.126-3.488.776-4.78 2.419l.787.618c1.135-1.444 2.659-2.135 3.917-2.04l.076-.997Zm1.535-3.178c-1.093 1.016-1.802 2.3-2.063 3.577l.98.2c.217-1.064.817-2.164 1.764-3.045l-.68-.732Zm3.773-1.717c-1.286.074-2.64.664-3.773 1.717l.681.732c.982-.913 2.122-1.391 3.15-1.45l-.058-.999Zm1.838-3.485c-1.262 1.07-2.065 2.495-2.303 3.901l.987.167c.195-1.16.87-2.377 1.963-3.305l-.647-.763Zm4.443-1.503c-1.45-.174-3.084.35-4.443 1.503l.647.763c1.18-1.002 2.544-1.409 3.677-1.273l.12-.993Zm1.742-3.444c-1.247 1.059-2.047 2.463-2.294 3.853l.985.175c.204-1.147.875-2.348 1.956-3.266l-.647-.762Zm5.324-1.301c-1.638-.57-3.687-.088-5.324 1.3l.648.763c1.43-1.214 3.117-1.547 4.346-1.119l.33-.944ZM46.404.379C44.65 1.3 43.31 2.68 42.644 4.13l.908.418c.56-1.22 1.728-2.448 3.318-3.284l-.466-.885Zm7.35 1.287.252-.432h-.001l-.003-.003-.011-.006-.04-.022a11.579 11.579 0 0 0-.678-.343c-.45-.21-1.085-.473-1.819-.685-1.446-.42-3.384-.672-5.05.204l.466.885c1.318-.694 2.94-.525 4.306-.129a11.871 11.871 0 0 1 2.288.94 2.485 2.485 0 0 1 .038.023l.252-.432Zm-3.458 6.971c1.659-.872 2.638-2.65 3.2-4.116a14.827 14.827 0 0 0 .743-2.72l.008-.046.002-.013v-.005l-.495-.071-.494-.07-.002.01a4.714 4.714 0 0 1-.032.187 13.819 13.819 0 0 1-.665 2.37c-.538 1.406-1.404 2.892-2.73 3.59l.465.884Zm-5.352.845c1.548.41 3.507.125 5.352-.845l-.465-.885c-1.677.882-3.379 1.095-4.631.763l-.256.967Zm-1.536 2.878c1.06-.898 1.794-2.044 2.143-3.218l-.958-.286c-.293.982-.916 1.964-1.832 2.742l.647.762Zm-4.443 1.503c1.45.175 3.084-.35 4.443-1.503l-.647-.762c-1.18 1.002-2.544 1.408-3.677 1.272l-.12.993Zm-1.742 3.445c1.247-1.059 2.047-2.463 2.294-3.854l-.985-.175c-.204 1.148-.875 2.348-1.956 3.266l.647.763Zm-3.673 1.53c1.238-.055 2.548-.576 3.673-1.53l-.648-.763c-.974.827-2.076 1.25-3.07 1.294l.044 1Zm-1.637 3.404c1.163-1.082 1.893-2.466 2.108-3.825l-.987-.157c-.179 1.125-.793 2.311-1.802 3.25l.68.732Zm-4.454 1.706c1.478.134 3.122-.468 4.454-1.706l-.681-.732c-1.16 1.078-2.533 1.546-3.683 1.442l-.09.996Zm-.913 2.86c.792-1.007 1.28-2.159 1.452-3.282l-.988-.151c-.145.948-.562 1.94-1.25 2.815l.786.618Zm-3.87 2.388c1.392-.192 2.807-1.036 3.87-2.388l-.786-.618c-.928 1.181-2.124 1.864-3.22 2.016l.137.99Zm-.512 2.915c.616-1.1.928-2.288.944-3.402l-1-.015c-.014.943-.278 1.968-.816 2.928l.872.489Zm-3.718 3.075c1.438-.36 2.817-1.47 3.718-3.075l-.872-.49c-.792 1.412-1.965 2.313-3.09 2.595l.244.97Zm-.084 3.192c.501-1.267.64-2.584.456-3.755l-.988.156c.155.985.041 2.121-.397 3.231l.93.368Zm-2.873 3.401c1.207-.64 2.259-1.846 2.873-3.401l-.93-.368c-.54 1.367-1.444 2.373-2.411 2.886l.468.883Zm-.168 3.395c.526-1.33.653-2.715.425-3.929l-.983.185c.191 1.017.089 2.21-.372 3.376l.93.368Zm-2.668 3.286c1.12-.664 2.088-1.82 2.668-3.286l-.93-.368c-.51 1.288-1.342 2.257-2.247 2.793l.51.86Zm.113 2.922c.325-1.196.351-2.395.121-3.458l-.977.211c.194.9.176 1.937-.109 2.985l.965.263Zm-2.33 3.623c1.058-.794 1.91-2.074 2.33-3.623l-.965-.262c-.37 1.363-1.108 2.442-1.965 3.085l.6.8Zm.263 2.922c.254-1.214.21-2.411-.081-3.456l-.963.268c.245.883.288 1.918.065 2.983l.979.205Zm-1.961 3.632c.933-.862 1.648-2.138 1.96-3.632l-.978-.205c-.275 1.314-.896 2.397-1.66 3.102l.678.735Zm.388 2.901c.19-1.218.086-2.403-.253-3.426l-.949.315c.287.864.38 1.889.214 2.958l.988.153ZM7.28 68.28c.927-.917 1.605-2.265 1.846-3.819l-.988-.153c-.212 1.367-.804 2.512-1.561 3.261l.703.71Z" fill="#000" mask="url('#path-340-inside-17_1383_56603')"/></svg>