<svg width="166" height="166" fill="none" xmlns="http://www.w3.org/2000/svg"><path d="M133.235 128.308c-19.572.589-41.34-8.864-58.52-24.945-3.882 22.592 1.06 39.771 14.042 47.733 14.12 8.668 34.672 4.942 51.185-9.295a77.92 77.92 0 0 0 15.571-19.141c-6.589 3.491-14.081 5.413-22.278 5.648Z" fill="#fff"/><path d="M67.303 95.56c-6.08-7.021-11.139-14.748-14.983-22.945-3.177-6.786-4.863-11.884-5.138-15.728h-.392c-23.964 0-34.633 30.2-36.633 36.594a2.207 2.207 0 0 0-.157.47l.745 4.59c7.1 36.593 39.457 63.264 76.914 63.264.942 0 1.844-.039 2.785-.078-2.196-.863-4.275-1.844-6.315-3.099-17.493-10.747-23.572-33.691-16.826-63.068Z" fill="#fff"/><path d="M156.375 56.067c0-9.923-11.06-25.377-13.453-28.24C128.136 13.12 108.525 5 87.659 5c-39.418 0-72.13 29.22-77.62 67.109 7.295-12.16 16.708-20.082 27.22-22.906 17.414-4.667 37.457 4.08 59.538 25.965.236.235.471.47.746.706l.745.784c6.236 7.688 15.493 12.08 25.376 12.08 18.042 0 32.711-14.668 32.711-32.671Z" fill="#fff"/></svg>