<svg width="2309" height="990" viewBox="0 0 2309 990" fill="none" xmlns="http://www.w3.org/2000/svg">
<path d="M1647.68 717.345H1668.88V727.579H1634.77V663.225H1647.68V717.345Z" fill="black"/>
<path d="M1697.92 728.409C1693.01 728.409 1688.58 727.333 1684.65 725.182C1680.71 722.969 1677.61 719.865 1675.34 715.87C1673.12 711.875 1672.02 707.265 1672.02 702.04C1672.02 696.816 1673.15 692.206 1675.43 688.211C1677.76 684.215 1680.93 681.142 1684.92 678.991C1688.92 676.778 1693.38 675.672 1698.29 675.672C1703.21 675.672 1707.67 676.778 1711.66 678.991C1715.66 681.142 1718.79 684.215 1721.07 688.211C1723.4 692.206 1724.57 696.816 1724.57 702.04C1724.57 707.265 1723.37 711.875 1720.97 715.87C1718.64 719.865 1715.44 722.969 1711.38 725.182C1707.39 727.333 1702.9 728.409 1697.92 728.409ZM1697.92 717.161C1700.26 717.161 1702.44 716.607 1704.47 715.501C1706.56 714.333 1708.22 712.612 1709.45 710.338C1710.68 708.064 1711.29 705.298 1711.29 702.04C1711.29 697.184 1710 693.466 1707.42 690.884C1704.9 688.241 1701.8 686.92 1698.11 686.92C1694.42 686.92 1691.32 688.241 1688.8 690.884C1686.34 693.466 1685.11 697.184 1685.11 702.04C1685.11 706.896 1686.31 710.645 1688.7 713.288C1691.16 715.87 1694.24 717.161 1697.92 717.161Z" fill="black"/>
<path d="M1752.2 675.672C1756.01 675.672 1759.36 676.44 1762.25 677.977C1765.14 679.452 1767.41 681.388 1769.07 683.785V676.502H1782.07V727.948C1782.07 732.68 1781.12 736.891 1779.21 740.579C1777.31 744.328 1774.45 747.278 1770.64 749.43C1766.83 751.642 1762.22 752.749 1756.81 752.749C1749.56 752.749 1743.6 751.058 1738.92 747.678C1734.31 744.297 1731.7 739.687 1731.09 733.848H1743.9C1744.58 736.184 1746.02 738.028 1748.24 739.38C1750.51 740.794 1753.24 741.501 1756.44 741.501C1760.19 741.501 1763.23 740.363 1765.57 738.089C1767.9 735.877 1769.07 732.496 1769.07 727.948V720.019C1767.41 722.416 1765.11 724.413 1762.16 726.011C1759.27 727.61 1755.95 728.409 1752.2 728.409C1747.9 728.409 1743.96 727.302 1740.4 725.089C1736.83 722.877 1734.01 719.773 1731.92 715.778C1729.89 711.721 1728.87 707.08 1728.87 701.856C1728.87 696.693 1729.89 692.114 1731.92 688.118C1734.01 684.123 1736.8 681.05 1740.31 678.899C1743.87 676.747 1747.84 675.672 1752.2 675.672ZM1769.07 702.04C1769.07 698.905 1768.46 696.232 1767.23 694.019C1766 691.745 1764.34 690.024 1762.25 688.856C1760.16 687.627 1757.92 687.012 1755.52 687.012C1753.12 687.012 1750.91 687.596 1748.88 688.764C1746.85 689.932 1745.19 691.653 1743.9 693.927C1742.67 696.14 1742.06 698.783 1742.06 701.856C1742.06 704.929 1742.67 707.633 1743.9 709.969C1745.19 712.243 1746.85 713.995 1748.88 715.224C1750.97 716.454 1753.18 717.068 1755.52 717.068C1757.92 717.068 1760.16 716.484 1762.25 715.317C1764.34 714.087 1766 712.366 1767.23 710.154C1768.46 707.879 1769.07 705.175 1769.07 702.04Z" fill="black"/>
<path d="M1799.38 670.416C1797.11 670.416 1795.2 669.71 1793.66 668.296C1792.19 666.821 1791.45 665.008 1791.45 662.856C1791.45 660.705 1792.19 658.923 1793.66 657.509C1795.2 656.034 1797.11 655.296 1799.38 655.296C1801.65 655.296 1803.53 656.034 1805 657.509C1806.54 658.923 1807.31 660.705 1807.31 662.856C1807.31 665.008 1806.54 666.821 1805 668.296C1803.53 669.71 1801.65 670.416 1799.38 670.416ZM1805.74 676.502V727.579H1792.83V676.502H1805.74Z" fill="black"/>
<path d="M1836.2 728.409C1832.02 728.409 1828.27 727.671 1824.95 726.196C1821.63 724.659 1818.99 722.6 1817.02 720.019C1815.11 717.437 1814.07 714.579 1813.89 711.444H1826.89C1827.13 713.411 1828.08 715.04 1829.74 716.331C1831.46 717.622 1833.58 718.267 1836.1 718.267C1838.56 718.267 1840.47 717.775 1841.82 716.792C1843.23 715.808 1843.94 714.548 1843.94 713.012C1843.94 711.352 1843.08 710.123 1841.36 709.324C1839.7 708.463 1837.03 707.541 1833.34 706.558C1829.53 705.636 1826.39 704.683 1823.93 703.7C1821.54 702.716 1819.45 701.21 1817.67 699.182C1815.94 697.154 1815.08 694.419 1815.08 690.977C1815.08 688.149 1815.88 685.568 1817.48 683.232C1819.14 680.896 1821.48 679.052 1824.49 677.7C1827.56 676.348 1831.16 675.672 1835.27 675.672C1841.36 675.672 1846.22 677.208 1849.84 680.282C1853.47 683.293 1855.47 687.381 1855.83 692.544H1843.48C1843.3 690.515 1842.44 688.917 1840.9 687.75C1839.42 686.52 1837.43 685.906 1834.91 685.906C1832.57 685.906 1830.76 686.336 1829.47 687.196C1828.24 688.057 1827.62 689.255 1827.62 690.792C1827.62 692.513 1828.48 693.835 1830.2 694.757C1831.93 695.617 1834.6 696.508 1838.23 697.43C1841.91 698.352 1844.96 699.305 1847.35 700.288C1849.75 701.272 1851.81 702.808 1853.53 704.898C1855.31 706.927 1856.23 709.631 1856.3 713.012C1856.3 715.962 1855.47 718.605 1853.81 720.941C1852.21 723.276 1849.87 725.12 1846.8 726.472C1843.79 727.763 1840.25 728.409 1836.2 728.409Z" fill="black"/>
<path d="M1880.08 687.104V711.813C1880.08 713.534 1880.48 714.794 1881.27 715.593C1882.13 716.331 1883.55 716.7 1885.52 716.7H1891.51V727.579H1883.39C1872.52 727.579 1867.08 722.293 1867.08 711.721V687.104H1860.99V676.502H1867.08V663.87H1880.08V676.502H1891.51V687.104H1880.08Z" fill="black"/>
<path d="M1905.49 670.416C1903.22 670.416 1901.31 669.71 1899.78 668.296C1898.3 666.821 1897.56 665.008 1897.56 662.856C1897.56 660.705 1898.3 658.923 1899.78 657.509C1901.31 656.034 1903.22 655.296 1905.49 655.296C1907.77 655.296 1909.64 656.034 1911.12 657.509C1912.65 658.923 1913.42 660.705 1913.42 662.856C1913.42 665.008 1912.65 666.821 1911.12 668.296C1909.64 669.71 1907.77 670.416 1905.49 670.416ZM1911.86 676.502V727.579H1898.95V676.502H1911.86Z" fill="black"/>
<path d="M1919.45 702.04C1919.45 696.754 1920.52 692.144 1922.67 688.211C1924.82 684.215 1927.8 681.142 1931.62 678.991C1935.43 676.778 1939.79 675.672 1944.71 675.672C1951.04 675.672 1956.26 677.27 1960.38 680.466C1964.56 683.601 1967.36 688.026 1968.77 693.742H1954.85C1954.11 691.53 1952.85 689.809 1951.07 688.579C1949.35 687.289 1947.2 686.643 1944.62 686.643C1940.93 686.643 1938.01 687.995 1935.86 690.7C1933.71 693.343 1932.63 697.123 1932.63 702.04C1932.63 706.896 1933.71 710.676 1935.86 713.38C1938.01 716.023 1940.93 717.345 1944.62 717.345C1949.84 717.345 1953.25 715.009 1954.85 710.338H1968.77C1967.36 715.87 1964.56 720.265 1960.38 723.522C1956.2 726.78 1950.98 728.409 1944.71 728.409C1939.79 728.409 1935.43 727.333 1931.62 725.182C1927.8 722.969 1924.82 719.896 1922.67 715.962C1920.52 711.967 1919.45 707.326 1919.45 702.04Z" fill="black"/>
<path d="M1995.93 728.409C1991.75 728.409 1988 727.671 1984.68 726.196C1981.36 724.659 1978.72 722.6 1976.75 720.019C1974.85 717.437 1973.8 714.579 1973.62 711.444H1986.62C1986.86 713.411 1987.82 715.04 1989.47 716.331C1991.2 717.622 1993.32 718.267 1995.84 718.267C1998.3 718.267 2000.2 717.775 2001.55 716.792C2002.97 715.808 2003.67 714.548 2003.67 713.012C2003.67 711.352 2002.81 710.123 2001.09 709.324C1999.43 708.463 1996.76 707.541 1993.07 706.558C1989.26 705.636 1986.13 704.683 1983.67 703.7C1981.27 702.716 1979.18 701.21 1977.4 699.182C1975.68 697.154 1974.82 694.419 1974.82 690.977C1974.82 688.149 1975.61 685.568 1977.21 683.232C1978.87 680.896 1981.21 679.052 1984.22 677.7C1987.29 676.348 1990.89 675.672 1995.01 675.672C2001.09 675.672 2005.95 677.208 2009.57 680.282C2013.2 683.293 2015.2 687.381 2015.57 692.544H2003.21C2003.03 690.515 2002.17 688.917 2000.63 687.75C1999.16 686.52 1997.16 685.906 1994.64 685.906C1992.3 685.906 1990.49 686.336 1989.2 687.196C1987.97 688.057 1987.35 689.255 1987.35 690.792C1987.35 692.513 1988.21 693.835 1989.94 694.757C1991.66 695.617 1994.33 696.508 1997.96 697.43C2001.64 698.352 2004.69 699.305 2007.08 700.288C2009.48 701.272 2011.54 702.808 2013.26 704.898C2015.04 706.927 2015.97 709.631 2016.03 713.012C2016.03 715.962 2015.2 718.605 2013.54 720.941C2011.94 723.276 2009.6 725.12 2006.53 726.472C2003.52 727.763 1999.99 728.409 1995.93 728.409Z" fill="black"/>
<path d="M2094.41 727.579L2087.41 720.664C2081.45 726.011 2074.16 728.685 2065.56 728.685C2060.82 728.685 2056.64 727.886 2053.02 726.288C2049.45 724.629 2046.69 722.324 2044.72 719.373C2042.75 716.361 2041.77 712.889 2041.77 708.955C2041.77 704.714 2042.97 700.903 2045.37 697.522C2047.76 694.142 2051.3 691.407 2055.97 689.317C2054.31 687.289 2053.11 685.352 2052.37 683.508C2051.63 681.603 2051.27 679.575 2051.27 677.423C2051.27 674.473 2052.03 671.83 2053.57 669.495C2055.11 667.097 2057.29 665.223 2060.12 663.87C2063.01 662.518 2066.36 661.842 2070.17 661.842C2074.04 661.842 2077.36 662.58 2080.12 664.055C2082.89 665.53 2084.95 667.497 2086.3 669.956C2087.65 672.414 2088.24 675.149 2088.05 678.161H2075.51C2075.58 676.133 2075.08 674.596 2074.04 673.551C2072.99 672.445 2071.58 671.892 2069.8 671.892C2068.08 671.892 2066.63 672.414 2065.46 673.459C2064.36 674.442 2063.8 675.733 2063.8 677.331C2063.8 678.868 2064.27 680.405 2065.19 681.941C2066.11 683.416 2067.62 685.26 2069.71 687.473L2085.93 703.515C2086.05 703.392 2086.15 703.269 2086.21 703.147C2086.27 703.024 2086.33 702.901 2086.39 702.778L2091.65 694.019H2105.11L2098.66 705.359C2097.43 707.756 2096.1 710.031 2094.69 712.182L2110.27 727.579H2094.41ZM2065.93 717.99C2070.97 717.99 2075.42 716.208 2079.29 712.643L2063.44 696.969C2057.47 699.612 2054.49 703.362 2054.49 708.217C2054.49 710.983 2055.54 713.319 2057.63 715.224C2059.72 717.068 2062.48 717.99 2065.93 717.99Z" fill="black"/>
<path d="M1631.64 798.263C1631.64 791.933 1633.05 786.278 1635.88 781.299C1638.77 776.259 1642.67 772.356 1647.59 769.59C1652.56 766.763 1658.13 765.349 1664.27 765.349C1671.46 765.349 1677.77 767.193 1683.17 770.881C1688.58 774.569 1692.36 779.67 1694.51 786.186H1679.67C1678.2 783.112 1676.11 780.807 1673.4 779.271C1670.76 777.734 1667.68 776.966 1664.18 776.966C1660.43 776.966 1657.08 777.857 1654.13 779.64C1651.24 781.361 1648.97 783.819 1647.31 787.015C1645.71 790.211 1644.91 793.961 1644.91 798.263C1644.91 802.505 1645.71 806.254 1647.31 809.511C1648.97 812.708 1651.24 815.197 1654.13 816.979C1657.08 818.701 1660.43 819.561 1664.18 819.561C1667.68 819.561 1670.76 818.793 1673.4 817.256C1676.11 815.658 1678.2 813.322 1679.67 810.249H1694.51C1692.36 816.826 1688.58 821.958 1683.17 825.646C1677.83 829.272 1671.53 831.086 1664.27 831.086C1658.13 831.086 1652.56 829.703 1647.59 826.937C1642.67 824.109 1638.77 820.206 1635.88 815.228C1633.05 810.249 1631.64 804.594 1631.64 798.263Z" fill="black"/>
<path d="M1726.38 831.362C1721.46 831.362 1717.03 830.287 1713.1 828.135C1709.17 825.923 1706.06 822.819 1703.79 818.823C1701.57 814.828 1700.47 810.218 1700.47 804.994C1700.47 799.769 1701.61 795.159 1703.88 791.164C1706.22 787.169 1709.38 784.096 1713.38 781.945C1717.37 779.732 1721.83 778.625 1726.74 778.625C1731.66 778.625 1736.12 779.732 1740.11 781.945C1744.11 784.096 1747.24 787.169 1749.52 791.164C1751.85 795.159 1753.02 799.769 1753.02 804.994C1753.02 810.218 1751.82 814.828 1749.42 818.823C1747.09 822.819 1743.89 825.923 1739.84 828.135C1735.84 830.287 1731.35 831.362 1726.38 831.362ZM1726.38 820.114C1728.71 820.114 1730.89 819.561 1732.92 818.455C1735.01 817.287 1736.67 815.566 1737.9 813.292C1739.13 811.017 1739.74 808.251 1739.74 804.994C1739.74 800.138 1738.45 796.419 1735.87 793.838C1733.35 791.195 1730.25 789.873 1726.56 789.873C1722.87 789.873 1719.77 791.195 1717.25 793.838C1714.79 796.419 1713.56 800.138 1713.56 804.994C1713.56 809.85 1714.76 813.599 1717.16 816.242C1719.61 818.823 1722.69 820.114 1726.38 820.114Z" fill="black"/>
<path d="M1824.08 778.718C1830.35 778.718 1835.39 780.654 1839.2 784.526C1843.07 788.337 1845.01 793.684 1845.01 800.568V830.532H1832.1V802.32C1832.1 798.325 1831.08 795.282 1829.06 793.193C1827.03 791.041 1824.26 789.966 1820.76 789.966C1817.25 789.966 1814.46 791.041 1812.37 793.193C1810.34 795.282 1809.33 798.325 1809.33 802.32V830.532H1796.42V802.32C1796.42 798.325 1795.4 795.282 1793.37 793.193C1791.35 791.041 1788.58 789.966 1785.08 789.966C1781.51 789.966 1778.68 791.041 1776.59 793.193C1774.57 795.282 1773.55 798.325 1773.55 802.32V830.532H1760.64V779.455H1773.55V785.632C1775.21 783.481 1777.33 781.791 1779.91 780.562C1782.56 779.332 1785.45 778.718 1788.58 778.718C1792.58 778.718 1796.14 779.578 1799.28 781.299C1802.41 782.959 1804.84 785.356 1806.56 788.49C1808.22 785.54 1810.62 783.174 1813.75 781.391C1816.95 779.609 1820.39 778.718 1824.08 778.718Z" fill="black"/>
<path d="M1918.84 778.718C1925.11 778.718 1930.15 780.654 1933.96 784.526C1937.83 788.337 1939.77 793.684 1939.77 800.568V830.532H1926.86V802.32C1926.86 798.325 1925.85 795.282 1923.82 793.193C1921.79 791.041 1919.03 789.966 1915.52 789.966C1912.02 789.966 1909.22 791.041 1907.13 793.193C1905.1 795.282 1904.09 798.325 1904.09 802.32V830.532H1891.18V802.32C1891.18 798.325 1890.17 795.282 1888.14 793.193C1886.11 791.041 1883.35 789.966 1879.84 789.966C1876.28 789.966 1873.45 791.041 1871.36 793.193C1869.33 795.282 1868.32 798.325 1868.32 802.32V830.532H1855.41V779.455H1868.32V785.632C1869.98 783.481 1872.1 781.791 1874.68 780.562C1877.32 779.332 1880.21 778.718 1883.35 778.718C1887.34 778.718 1890.91 779.578 1894.04 781.299C1897.18 782.959 1899.6 785.356 1901.32 788.49C1902.98 785.54 1905.38 783.174 1908.52 781.391C1911.71 779.609 1915.15 778.718 1918.84 778.718Z" fill="black"/>
<path d="M1997.66 803.887C1997.66 805.731 1997.53 807.391 1997.29 808.866H1959.95C1960.26 812.554 1961.55 815.443 1963.82 817.533C1966.09 819.622 1968.89 820.667 1972.21 820.667C1977 820.667 1980.42 818.608 1982.44 814.49H1996.37C1994.89 819.407 1992.06 823.464 1987.88 826.66C1983.7 829.795 1978.57 831.362 1972.49 831.362C1967.57 831.362 1963.14 830.287 1959.21 828.135C1955.34 825.923 1952.3 822.819 1950.08 818.823C1947.93 814.828 1946.86 810.218 1946.86 804.994C1946.86 799.708 1947.93 795.067 1950.08 791.072C1952.23 787.077 1955.25 784.004 1959.12 781.852C1962.99 779.701 1967.45 778.625 1972.49 778.625C1977.34 778.625 1981.68 779.67 1985.49 781.76C1989.36 783.85 1992.34 786.831 1994.43 790.703C1996.58 794.514 1997.66 798.909 1997.66 803.887ZM1984.29 800.2C1984.23 796.88 1983.03 794.237 1980.69 792.271C1978.36 790.242 1975.5 789.228 1972.12 789.228C1968.92 789.228 1966.22 790.212 1964 792.178C1961.85 794.084 1960.53 796.758 1960.04 800.2H1984.29Z" fill="black"/>
<path d="M2018.14 787.384C2019.8 784.68 2021.95 782.559 2024.6 781.023C2027.3 779.486 2030.37 778.718 2033.82 778.718V792.271H2030.4C2026.35 792.271 2023.27 793.223 2021.18 795.129C2019.16 797.034 2018.14 800.353 2018.14 805.086V830.532H2005.23V779.455H2018.14V787.384Z" fill="black"/>
<path d="M2037.35 804.994C2037.35 799.708 2038.42 795.098 2040.57 791.164C2042.72 787.169 2045.71 784.096 2049.52 781.945C2053.33 779.732 2057.69 778.625 2062.61 778.625C2068.94 778.625 2074.16 780.224 2078.28 783.42C2082.46 786.554 2085.26 790.98 2086.67 796.696H2072.75C2072.01 794.483 2070.75 792.762 2068.97 791.533C2067.25 790.242 2065.1 789.597 2062.52 789.597C2058.83 789.597 2055.91 790.949 2053.76 793.654C2051.61 796.297 2050.53 800.077 2050.53 804.994C2050.53 809.85 2051.61 813.63 2053.76 816.334C2055.91 818.977 2058.83 820.299 2062.52 820.299C2067.74 820.299 2071.15 817.963 2072.75 813.292H2086.67C2085.26 818.823 2082.46 823.218 2078.28 826.476C2074.1 829.733 2068.88 831.362 2062.61 831.362C2057.69 831.362 2053.33 830.287 2049.52 828.135C2045.71 825.923 2042.72 822.849 2040.57 818.916C2038.42 814.92 2037.35 810.28 2037.35 804.994Z" fill="black"/>
<path d="M2141.77 803.887C2141.77 805.731 2141.64 807.391 2141.4 808.866H2104.06C2104.36 812.554 2105.65 815.443 2107.93 817.533C2110.2 819.622 2113 820.667 2116.32 820.667C2121.11 820.667 2124.52 818.608 2126.55 814.49H2140.47C2139 819.407 2136.17 823.464 2131.99 826.66C2127.81 829.795 2122.68 831.362 2116.6 831.362C2111.68 831.362 2107.25 830.287 2103.32 828.135C2099.45 825.923 2096.4 822.819 2094.19 818.823C2092.04 814.828 2090.96 810.218 2090.96 804.994C2090.96 799.708 2092.04 795.067 2094.19 791.072C2096.34 787.077 2099.35 784.004 2103.23 781.852C2107.1 779.701 2111.56 778.625 2116.6 778.625C2121.45 778.625 2125.78 779.67 2129.6 781.76C2133.47 783.85 2136.45 786.831 2138.54 790.703C2140.69 794.514 2141.77 798.909 2141.77 803.887ZM2128.4 800.2C2128.34 796.88 2127.14 794.237 2124.8 792.271C2122.47 790.242 2119.61 789.228 2116.23 789.228C2113.03 789.228 2110.33 790.212 2108.11 792.178C2105.96 794.084 2104.64 796.758 2104.15 800.2H2128.4Z" fill="black"/>
<path d="M1191.53 654.245V828.358H1156.61V754.272H1082.03V828.358H1047.11V654.245H1082.03V725.836H1156.61V654.245H1191.53Z" fill="black"/>
<path d="M1245.36 654.245V762.005C1245.36 773.812 1248.44 782.875 1254.59 789.195C1260.75 795.348 1269.39 798.424 1280.54 798.424C1291.84 798.424 1300.57 795.348 1306.73 789.195C1312.88 782.875 1315.96 773.812 1315.96 762.005V654.245H1351.13V761.756C1351.13 776.556 1347.89 789.112 1341.4 799.422C1335.08 809.566 1326.52 817.216 1315.71 822.371C1305.06 827.526 1293.17 830.104 1280.04 830.104C1267.07 830.104 1255.26 827.526 1244.62 822.371C1234.14 817.216 1225.82 809.566 1219.67 799.422C1213.52 789.112 1210.44 776.556 1210.44 761.756V654.245H1245.36Z" fill="black"/>
<path d="M1468.68 739.056C1478.5 740.886 1486.56 745.791 1492.88 753.774C1499.2 761.756 1502.36 770.902 1502.36 781.213C1502.36 790.525 1500.03 798.757 1495.37 805.908C1490.88 812.892 1484.32 818.38 1475.67 822.371C1467.02 826.362 1456.79 828.358 1444.99 828.358H1369.9V654.245H1441.74C1453.55 654.245 1463.69 656.157 1472.18 659.982C1480.82 663.807 1487.31 669.129 1491.63 675.947C1496.12 682.765 1498.37 690.498 1498.37 699.145C1498.37 709.289 1495.62 717.77 1490.14 724.589C1484.81 731.407 1477.66 736.229 1468.68 739.056ZM1404.83 726.085H1436.75C1445.07 726.085 1451.47 724.256 1455.96 720.597C1460.45 716.773 1462.7 711.368 1462.7 704.383C1462.7 697.399 1460.45 691.994 1455.96 688.169C1451.47 684.345 1445.07 682.432 1436.75 682.432H1404.83V726.085ZM1440 799.921C1448.48 799.921 1455.05 797.925 1459.7 793.934C1464.53 789.943 1466.94 784.289 1466.94 776.972C1466.94 769.489 1464.44 763.668 1459.45 759.511C1454.47 755.187 1447.73 753.025 1439.25 753.025H1404.83V799.921H1440Z" fill="black"/>
<path d="M227.865 654.245C246.157 654.245 262.205 657.82 276.007 664.971C289.976 672.122 300.703 682.349 308.186 695.653C315.835 708.79 319.66 724.09 319.66 741.551C319.66 759.012 315.835 774.311 308.186 787.449C300.703 800.42 289.976 810.481 276.007 817.631C262.205 824.782 246.157 828.358 227.865 828.358H167V654.245H227.865ZM226.617 798.674C244.91 798.674 259.045 793.685 269.023 783.707C279.001 773.729 283.99 759.677 283.99 741.551C283.99 723.424 279.001 709.289 269.023 699.145C259.045 688.835 244.91 683.68 226.617 683.68H201.922V798.674H226.617Z" fill="black"/>
<path d="M365.757 654.245V828.358H330.835V654.245H365.757Z" fill="black"/>
<path d="M506.524 706.628C502.533 699.311 497.045 693.74 490.06 689.916C483.076 686.091 474.927 684.178 465.615 684.178C455.304 684.178 446.158 686.507 438.176 691.163C430.194 695.819 423.958 702.471 419.468 711.118C414.978 719.766 412.733 729.744 412.733 741.052C412.733 752.693 414.978 762.837 419.468 771.484C424.124 780.132 430.526 786.783 438.675 791.44C446.823 796.096 456.302 798.424 467.112 798.424C480.415 798.424 491.308 794.932 499.789 787.948C508.27 780.797 513.841 770.902 516.502 758.264H456.635V731.573H550.925V762.005C548.597 774.145 543.608 785.37 535.958 795.68C528.309 805.991 518.414 814.306 506.274 820.625C494.301 826.778 480.831 829.854 465.864 829.854C449.068 829.854 433.852 826.113 420.216 818.629C406.746 810.98 396.103 800.42 388.287 786.95C380.637 773.48 376.812 758.18 376.812 741.052C376.812 723.923 380.637 708.624 388.287 695.154C396.103 681.518 406.746 670.958 420.216 663.474C433.852 655.825 448.985 652 465.615 652C485.238 652 502.283 656.823 516.751 666.468C531.219 675.947 541.197 689.334 546.684 706.628H506.524Z" fill="black"/>
<path d="M596.718 654.245V828.358H561.795V654.245H596.718Z" fill="black"/>
<path d="M743.685 654.245V682.432H697.288V828.358H662.366V682.432H615.969V654.245H743.685Z" fill="black"/>
<path d="M842.017 795.181H772.671L761.197 828.358H724.528L787.139 653.996H827.798L890.409 828.358H853.491L842.017 795.181ZM832.538 767.244L807.344 694.406L782.15 767.244H832.538Z" fill="black"/>
<path d="M940.768 800.669H998.14V828.358H905.845V654.245H940.768V800.669Z" fill="black"/>
<path d="M1586 654H1598V832H1586V654Z" fill="black"/>
<path d="M981.755 180.152C980.834 179.887 977.569 178.813 974.677 177.835L969.465 175.993L972.63 178.754C982.253 187.22 988.779 203.908 994.707 235.076C998.303 253.781 993.715 246.005 1000.52 250.275C1008.51 255.29 1007.75 254.194 1008.9 250.275C1009.56 239.734 1028.84 217.442 1036.67 214.429C1035.47 212.019 1030.09 205.332 1021.99 199.969C1012.62 194.487 1010.76 193.342 999.272 187.568C990.723 183.853 982.85 180.492 981.755 180.152Z" fill="black"/>
<path d="M1167.36 159.367C1162.92 159.9 1157.11 161.204 1153.97 162.389L1152.43 162.982L1155.63 165.115C1160.61 168.434 1169.56 176.315 1173.35 180.76C1178.09 186.212 1180.64 190.123 1187.04 201.502C1196.34 218.036 1198.18 220.11 1208.02 224.851C1214.24 227.932 1220.34 229.888 1221.11 229.177C1221.53 228.703 1219.69 209.265 1218.62 203.694C1216.19 190.775 1210.09 178.567 1201.2 168.671C1194.74 161.5 1181.23 157.767 1167.36 159.367Z" fill="black"/>
<path d="M855.372 160.183C848.23 161.517 847.277 162.124 850.338 163.276C853.739 164.489 866.323 176.012 872.785 183.836C875.982 187.656 882.852 196.511 888.09 203.546C893.327 210.521 898.905 217.313 900.538 218.648C906.251 223.257 917.543 226.532 929.99 227.32L936.656 227.684L934.616 223.803C933.528 221.68 931.691 217.981 930.467 215.676C929.242 213.311 924.753 204.456 920.468 195.965C911.625 178.377 909.04 174.496 902.646 169.159C897.477 164.792 891.491 161.942 883.804 160.183C876.798 158.606 863.942 158.606 855.372 160.183Z" fill="black"/>
<path d="M913.757 162.327L906.796 161.939L910.899 165.525C919.298 172.856 926.437 184.363 938.808 210.275C943.167 219.423 947.832 228.146 949.303 229.765C952.308 233.258 959.186 237.507 967.249 240.835C974.066 243.679 984.91 247.065 985.98 246.729C987.17 246.355 975.124 198.156 972.393 192.112C969.906 186.539 964.281 179.87 958.791 175.953C956.928 174.621 952.501 172.122 948.917 170.454C943.188 167.762 940.877 167.009 931.539 165.067C924.353 163.545 918.39 162.624 913.757 162.327Z" fill="black"/>
<path d="M819.26 166.716C810.074 169.086 801.422 173.353 795.851 178.212L793.244 180.524L796.444 180.938C802.37 181.709 806.755 183.072 813.333 186.331C822.578 190.835 837.216 200.85 849.898 211.34C856.239 216.555 860.091 217.977 869.158 218.451C874.788 218.747 883.322 217.977 885.218 216.91C886.759 216.021 864.358 186.331 855.172 177.086C850.076 171.99 848.061 170.39 844.446 168.671C842.016 167.486 838.816 166.241 837.334 165.945C832.771 164.878 825.067 165.234 819.26 166.716Z" fill="black"/>
<path d="M1126.53 165.649C1116.69 167.546 1106.68 172.286 1099.57 178.509L1097.2 180.583L1100.16 180.998C1104.66 181.65 1116.69 185.739 1122.68 188.643C1128.9 191.724 1133.64 195.161 1144.31 204.466C1158.12 216.436 1161.08 217.859 1172.7 218.451C1177.5 218.688 1181.71 218.511 1184.43 218.096L1188.64 217.325L1184.73 211.221C1182.53 207.843 1179.04 202.273 1176.9 198.776C1167.96 184.139 1156.87 173.353 1144.31 167.19C1141.41 165.768 1140.28 165.59 1134.53 165.471C1130.98 165.412 1127.36 165.531 1126.53 165.649Z" fill="black"/>
<path d="M1210.27 167.723C1221.88 184.079 1225.56 193.383 1226.68 209.739C1228.05 229.058 1228.46 232.674 1229.29 235.577C1230.36 239.074 1236.05 247.37 1240.79 252.23L1243.99 255.608L1248.08 245.533C1253.59 232.081 1254.95 228.11 1256.08 221.532C1257.97 210.747 1256.2 194.627 1252.34 186.983C1250.45 183.249 1245.77 178.567 1240.55 175.19C1232.73 170.152 1224.14 167.249 1214.83 166.656L1209.2 166.3L1210.27 167.723Z" fill="black"/>
<path d="M1082.09 188.582C1076.93 190.479 1073.61 192.197 1069.34 195.22C1065.31 198.064 1058.38 205.176 1055.48 209.324L1053.58 212.109H1057.91C1063.48 212.109 1076.99 213.591 1082.68 214.776C1086.77 215.606 1092.46 217.502 1109.94 223.665C1118.47 226.688 1125.05 227.458 1130.86 226.214C1136.01 225.088 1146.92 220.939 1149.05 219.221L1150.53 218.095L1149.23 217.147C1148.52 216.613 1143.66 212.82 1138.44 208.672C1133.23 204.524 1126.89 199.842 1124.28 198.301C1114.09 192.138 1101.46 187.99 1091.27 187.456C1086.71 187.219 1085.4 187.338 1082.09 188.582Z" fill="black"/>
<path d="M782.221 189.887C777.006 191.368 771.909 194.628 765.865 200.376C759.701 206.302 754.072 214.066 752.057 219.458C751.345 221.296 750.812 223.073 750.812 223.37C750.812 223.666 751.997 223.429 753.479 222.777C763.672 218.392 779.376 218.095 800.651 221.947C805.096 222.718 811.022 224.022 813.867 224.851C819.971 226.629 825.126 226.748 830.697 225.325C834.727 224.259 846.283 218.688 846.638 217.681C846.698 217.384 843.497 214.718 839.527 211.695C827.793 202.924 812.622 194.213 803.259 190.894C797.925 188.998 787.258 188.524 782.221 189.887Z" fill="black"/>
<path d="M1262.83 193.265C1262.83 193.383 1263.25 195.517 1263.72 198.065C1265.03 204.88 1264.91 216.792 1263.43 224.022C1261.95 231.192 1260.88 234.156 1255.6 245.593C1251.4 254.719 1249.62 259.401 1248.91 263.194C1248.49 265.327 1248.55 265.387 1250.51 265.683C1251.57 265.861 1257.8 266.335 1264.31 266.69L1276.17 267.342L1278.06 265.09C1284.76 257.09 1291.28 240.674 1291.28 231.785C1291.28 221.888 1283.69 208.258 1273.68 200.139C1268.76 196.11 1262.83 192.376 1262.83 193.265Z" fill="black"/>
<path d="M1047.54 220.466C1040.25 222.185 1030.7 229.83 1024.54 238.897C1021.87 242.808 1017.79 251.105 1018.26 251.579C1018.38 251.756 1020.1 251.519 1021.99 251.045C1034.26 247.964 1047.89 247.727 1066.68 250.275C1086.29 252.882 1091.51 252.171 1101.41 245.534C1106.8 241.919 1115.27 234.215 1115.27 232.97C1115.27 232.615 1114.86 232.259 1114.32 232.259C1113.79 232.259 1107.69 230.422 1100.81 228.17C1086.35 223.37 1080.78 221.889 1072.72 220.703C1066.44 219.755 1051.15 219.577 1047.54 220.466Z" fill="black"/>
<path d="M762.605 228.643C751.82 230.954 743.404 236.94 738.841 245.651C734.397 254.066 731.256 266.156 731.256 274.512C731.256 278.897 731.848 279.49 733.982 277.238C737.656 273.386 744.886 268.823 753.123 265.208C763.079 260.882 784.769 253.77 792.355 252.407C796.859 251.577 802.429 248.14 806.696 243.577C809.541 240.555 815.111 232.377 814.696 231.902C814.163 231.369 799.999 228.762 794.547 228.169C785.303 227.162 768.591 227.399 762.605 228.643Z" fill="black"/>
<path d="M1460.26 230.313C1456.25 233.14 1456.02 239.149 1459.87 242.824C1462.23 245.086 1466.7 245.016 1469.77 242.683C1477.7 236.675 1468.35 224.587 1460.26 230.313Z" fill="black"/>
<path d="M1434.67 244.51C1414.71 255.883 1394.7 262.984 1368.14 268.064C1355.84 270.431 1339.82 272.279 1322.81 273.376C1308.85 274.242 1267.17 273.722 1252.15 272.51C1208.82 268.93 1162.31 261.656 1121.8 252.188C1109.96 249.417 1109.67 249.359 1106.9 251.957C1105.84 252.881 1099.31 256.056 1096.84 256.807C1096.13 257.038 1095.66 257.442 1095.83 257.673C1095.95 257.961 1095.48 258.019 1094.78 257.904C1094.07 257.788 1093.18 257.904 1092.89 258.134C1092.18 258.654 1089.42 265.178 1089.71 265.524C1089.83 265.64 1093.36 267.083 1097.48 268.699C1140.88 285.672 1202.93 300.856 1249.97 305.936C1288.83 310.151 1335.23 310.786 1380.8 307.668C1403 306.167 1419.54 304.435 1421.9 303.454C1428.02 300.971 1426.02 292.543 1419.42 292.773C1418.25 292.773 1411.77 293.351 1404.94 294.044C1375.03 296.988 1333.99 298.547 1307.2 297.738L1291.9 297.219L1305.14 296.815C1339.29 295.66 1360.49 293.813 1386.39 289.771C1400.7 287.52 1425.25 282.555 1431.2 280.765C1436.32 279.206 1436.68 272.625 1431.73 270.143C1430.14 269.334 1429.43 269.45 1422.19 271.066C1408.24 274.242 1392.05 277.301 1379.68 279.091C1364.79 281.227 1363.08 281.227 1373.44 279.033C1400.52 273.433 1423.25 265.12 1441.15 254.382C1449.04 249.648 1450.63 246.242 1446.74 242.374C1444.33 240.007 1441.8 240.468 1434.67 244.51Z" fill="black"/>
<path d="M1297.62 242.156C1297.5 242.393 1296.91 244.23 1296.32 246.186C1295.13 250.334 1290.8 259.816 1288.32 263.668C1287.31 265.209 1286.54 266.631 1286.54 266.809C1286.54 267.046 1291.46 267.224 1297.5 267.224C1307.4 267.224 1308.47 267.105 1308.47 266.216C1308.47 264.32 1305.98 256.32 1304.02 252.112C1301.83 247.253 1298.09 241.386 1297.62 242.156Z" fill="black"/>
<path d="M1030.53 256.853C1022.88 258.097 1015.36 259.994 1012.63 261.357C1007.65 263.905 1000.9 271.372 996.986 278.661L995.09 282.276L1001.96 285.773L1008.9 289.269L1016.3 288.262C1020.39 287.728 1025.61 287.136 1027.86 287.017C1059.27 285.121 1061.94 284.35 1072.55 273.446C1077.58 268.231 1083.27 260.883 1083.27 259.52C1083.27 259.283 1080.01 258.927 1076.04 258.749C1072.01 258.512 1064.78 257.801 1059.92 257.149C1049.85 255.786 1038.17 255.668 1030.53 256.853Z" fill="black"/>
<path d="M784.888 261.238C772.265 265.149 751.524 274.157 745.064 278.543C737.242 283.817 732.501 289.565 730.13 296.617C726.93 306.218 728.589 326.13 733.39 335.552L734.279 337.152L737.005 331.819C738.486 328.856 741.39 324.53 743.405 322.1C749.094 315.463 761.006 305.092 776.236 293.358C784.236 287.254 785.421 285.95 788.147 280.794C790.814 275.639 792.592 269.475 793.244 263.134C793.54 259.757 793.481 258.927 792.829 258.986C792.355 258.986 788.799 259.994 784.888 261.238Z" fill="black"/>
<path d="M831.705 264.023C828.386 264.556 825.482 265.504 825.482 265.978C825.482 266.274 826.49 267.4 827.734 268.408C831.409 271.608 835.201 276.349 844.742 289.742C849.78 296.735 857.424 306.572 861.691 311.61C870.462 321.803 871.825 322.751 881.781 325.418C886.048 326.544 888.122 326.781 895.352 326.662C900.034 326.662 904.063 326.366 904.36 326.07C904.597 325.833 903.826 324.232 902.582 322.632C899.856 319.077 889.722 303.135 882.67 291.401C872.062 273.86 866.136 268.289 854.817 265.149C851.261 264.2 835.557 263.43 831.705 264.023Z" fill="black"/>
<path d="M1448.28 264.536C1446.37 266.305 1445.97 267.225 1445.97 270.125C1445.97 273.168 1446.37 274.016 1448.44 275.856C1454.8 281.516 1464.01 275.078 1461.07 267.154C1459.25 262.06 1452.57 260.716 1448.28 264.536Z" fill="black"/>
<path d="M802.37 265.861C802.37 268.943 799.525 279.136 797.392 283.58L795.377 287.788L800.355 294.247C806.281 301.833 821.867 317.834 824.949 319.374C829.334 321.626 836.683 323.108 843.853 323.167C850.372 323.167 858.965 322.101 859.558 321.212C859.676 320.975 858.254 319.019 856.417 316.945C851.557 311.433 841.364 298.396 834.964 289.447C824.949 275.402 819.912 270.306 812.682 266.869C810.37 265.743 807.111 264.676 805.452 264.439L802.37 264.083V265.861Z" fill="black"/>
<path d="M692.736 265.209C689.358 265.624 683.787 266.691 682.365 267.224C681.121 267.698 681.417 268.113 686.513 273.269C689.477 276.291 695.225 283.165 699.314 288.558C703.344 293.951 709.329 301.122 712.589 304.5L718.515 310.663L718.93 305.981C719.463 299.759 720.411 295.492 722.189 291.521C723.197 289.329 723.552 287.61 723.374 286.188C723.197 285.062 722.722 281.328 722.367 277.891C721.952 274.454 721.537 271.372 721.419 270.958C721.182 269.95 715.848 267.343 711.937 266.335C708.559 265.446 696.588 264.735 692.736 265.209Z" fill="black"/>
<path d="M1478.75 255.875C1474.01 257.917 1472.55 264.916 1475.9 268.926C1480.94 274.905 1489.54 270.312 1488.45 262.291C1487.79 257.406 1482.9 254.125 1478.75 255.875Z" fill="black"/>
<path d="M640.586 267.045C639.756 267.164 637.741 267.697 636.082 268.171L633 269.001L637.445 273.268C639.874 275.638 645.919 282.75 650.838 289.091C665.594 307.995 677.92 320.085 684.676 322.337C693.269 325.122 703.107 325.359 713.359 322.929C716.322 322.218 718.811 321.566 718.811 321.448C718.811 321.329 717.152 319.67 715.196 317.773C708.203 311.136 698.307 299.995 690.425 289.861C674.957 269.89 669.327 266.571 650.956 266.749C646.097 266.749 641.415 266.927 640.586 267.045Z" fill="black"/>
<path d="M877.929 266.985C875.144 267.696 875.144 267.815 877.929 270.956C882.374 275.815 885.277 280.26 892.922 293.534C896.833 300.349 903.174 310.543 906.967 316.113C912.834 324.647 914.493 326.721 917.16 328.44C924.094 333.062 934.346 335.966 943.472 335.966C945.724 335.966 947.562 335.847 947.562 335.788C947.562 335.67 944.776 329.803 941.398 322.81C938.02 315.817 933.991 307.165 932.45 303.609C921.427 278.186 915.323 271.726 899.441 268.348C894.107 267.222 880.359 266.333 877.929 266.985Z" fill="black"/>
<path d="M1081.46 273.863C1078.57 277.113 1077.98 278.042 1078.62 278.506C1079.27 278.97 1079.21 278.97 1078.33 278.738C1077.5 278.448 1076.32 279.203 1073.9 281.408C1072.13 283.091 1070.72 284.716 1070.78 285.064C1070.89 285.354 1070.78 285.47 1070.6 285.238C1070.36 285.006 1068.83 285.47 1067.23 286.283C1062.34 288.721 1062.98 289.417 1075.32 295.569C1087.83 301.779 1099.75 306.48 1117.76 312.399C1147.68 322.149 1179.32 329.636 1259.76 346.002C1347 363.761 1393.98 378.735 1427.92 399.686C1437.66 405.664 1438.84 405.954 1441.91 402.936C1445.51 399.396 1444.38 396.146 1438.36 392.315C1421.78 381.695 1406.96 374.498 1385.48 366.605C1358.51 356.681 1324.69 347.743 1270.09 336.136C1263.6 334.743 1258.7 333.583 1259.17 333.583C1260.83 333.466 1296.42 339.908 1317.96 344.203C1339.15 348.44 1361.05 353.489 1371.32 356.507C1391.8 362.543 1404.37 366.953 1418.24 372.989C1425.2 376.007 1427.5 376.471 1429.51 375.02C1432.29 373.163 1432.82 367.882 1430.46 365.909C1428.98 364.69 1415.94 359.002 1407.02 355.694C1387.37 348.44 1367.12 342.752 1337.38 336.078C1331.24 334.743 1326.75 333.583 1327.52 333.583C1328.23 333.525 1336.73 334.859 1346.41 336.426C1373.32 340.895 1393.51 344.958 1408.85 348.904C1413.16 350.007 1417.29 350.935 1418.18 350.935C1420.13 350.935 1423.08 348.266 1423.49 346.002C1423.96 343.681 1422.08 340.663 1419.48 339.618C1416.41 338.342 1397.58 333.815 1386.07 331.551C1358.1 326.096 1322.92 320.931 1293.11 317.855C1218.21 310.194 1145.61 294.002 1093.67 273.225L1085.18 269.859L1081.46 273.863Z" fill="black"/>
<path d="M925.635 274.868C925.635 275.164 926.049 275.757 926.583 276.172C928.005 277.357 931.738 283.046 933.753 287.076C934.761 289.031 938.02 296.498 941.102 303.669C944.124 310.84 949.102 321.685 952.065 327.729C957.458 338.574 957.636 338.871 961.31 341.597C966.466 345.508 974.644 349.301 981.696 351.019C984.896 351.79 987.622 352.382 987.682 352.323C987.741 352.264 987.03 349.834 986.082 346.93C985.193 343.967 982.881 335.848 981.044 328.855C975.592 307.936 973.755 302.187 970.673 295.846C967.177 288.794 962.555 283.639 957.221 280.972C953.25 278.957 945.546 276.409 939.68 275.164C935.235 274.275 925.635 274.038 925.635 274.868Z" fill="black"/>
<path d="M975.414 288.321C975.414 288.498 976.007 289.447 976.659 290.454C979.029 293.773 981.992 301.892 984.955 313.151C989.104 328.796 996.097 353.686 997.045 355.82C999.297 361.035 1008.96 368.561 1018.79 372.828C1021.76 374.072 1024.25 375.08 1024.3 374.961C1024.42 374.843 1024.13 371.702 1023.71 367.969C1022.82 360.264 1021.46 347.108 1020.1 333.597C1017.73 309.299 1012.28 300.706 994.082 292.706C986.318 289.328 975.414 286.78 975.414 288.321Z" fill="black"/>
<path d="M1440.01 291.931C1436.16 294.633 1435.06 299.183 1437.26 303.093C1438.67 305.581 1440.64 306.647 1443.94 306.647C1445.27 306.647 1447.08 306.292 1447.95 305.936C1450.07 304.87 1451.8 301.529 1451.8 298.401C1451.8 293.282 1444.1 289.017 1440.01 291.931Z" fill="black"/>
<path d="M1051.57 292.469C1049.61 292.943 1042.97 293.713 1036.75 294.187C1030.59 294.661 1023.42 295.195 1020.93 295.432L1016.36 295.846L1017.67 297.447C1018.73 298.81 1019.74 299.224 1023.36 299.817C1030.35 300.943 1037.88 304.025 1043.98 308.173C1045.34 309.121 1046.71 309.892 1046.94 309.892C1047.71 309.892 1052.87 301.061 1054.59 296.854C1056.01 293.298 1056.37 291.461 1055.6 291.58C1055.3 291.639 1053.52 292.054 1051.57 292.469Z" fill="black"/>
<path d="M1470.38 282.428C1464.52 284.806 1462.42 294.5 1466.72 299.164C1473.67 306.663 1485.1 299.073 1481.99 288.921C1480.53 283.8 1474.77 280.599 1470.38 282.428Z" fill="black"/>
<path d="M775.287 303.018C764.383 312.144 751.346 324.945 747.672 330.101C741.627 338.693 739.197 345.983 739.73 354.042C740.264 361.509 744.234 371.88 749.627 379.821C752.116 383.436 757.213 389.303 757.865 389.303C758.161 389.303 758.516 386.992 758.694 384.147C758.872 380.71 759.642 376.917 760.887 373.125C763.85 363.82 775.465 341.242 785.066 326.189C787.614 322.219 788.621 315.048 787.614 308.411C786.666 301.892 785.184 295.669 784.592 295.669C784.295 295.669 780.147 298.988 775.287 303.018Z" fill="black"/>
<path d="M796.088 301.774C797.392 305.566 797.747 316.589 796.681 321.686L796.384 323.108L801.066 322.752C803.674 322.575 807.763 321.923 810.133 321.389L814.518 320.382L811.496 317.656C808.533 314.989 802.429 308.53 797.984 303.374C796.74 301.892 795.851 301.181 796.088 301.774Z" fill="black"/>
<path d="M1491.07 299.257C1486.06 304.557 1488.96 313.561 1495.64 313.561C1502.54 313.561 1505.81 302.524 1500 298.748C1497.31 297.006 1492.96 297.223 1491.07 299.257Z" fill="black"/>
<path d="M1023.71 311.018C1026.38 316.233 1027.74 325.063 1029.05 345.568C1029.58 353.687 1030.47 364.65 1031.12 369.984C1032.01 378.28 1032.42 380.236 1033.85 382.784C1036.16 386.992 1043.33 394.518 1048.19 397.778C1052.69 400.8 1061.17 405.067 1061.7 404.533C1061.88 404.356 1061.58 402.044 1061.05 399.318C1059.21 389.599 1058.74 377.273 1059.57 362.398C1060.22 350.309 1060.22 347.998 1059.45 343.198C1058.38 336.975 1056.13 331.76 1052.63 327.375C1047.36 320.737 1033.08 311.73 1024.25 309.537L1022.7 309.122L1023.71 311.018Z" fill="black"/>
<path d="M1476.02 376.193C1472.02 379.02 1471.78 385.028 1475.63 388.704C1477.99 390.966 1482.46 390.895 1485.53 388.563C1493.46 382.554 1484.11 370.467 1476.02 376.193Z" fill="black"/>
<path d="M1459.87 317.855C1452.58 325.457 1457.45 337.527 1467.31 335.061C1473.27 333.623 1477.38 329.042 1475.63 322.878C1473.27 314.557 1465.72 311.794 1459.87 317.855Z" fill="black"/>
<path d="M785.066 340.827C766.457 375.495 762.902 389.659 769.183 403.645C772.739 411.704 784.414 422.549 794.666 427.468C800.414 430.253 800.77 430.194 799.407 427.053C798.755 425.631 797.807 422.608 797.214 420.357C795.081 411.645 796.622 387.585 800.651 366.547C802.074 359.258 801.955 356.176 800.059 350.191C798.696 345.805 794.37 337.923 791.525 334.605L789.629 332.412L785.066 340.827Z" fill="black"/>
<path d="M1067.09 341.715C1067.69 345.33 1067.68 353.212 1067.03 368.857C1066.62 379.406 1066.68 382.487 1067.57 389.006C1069.29 402.103 1071.12 409.274 1073.61 412.888C1077.34 418.4 1085.58 424.8 1093.17 428.119C1096.9 429.837 1106.44 432.741 1106.8 432.326C1106.97 432.208 1106.56 431.082 1105.91 429.778C1101.4 420.948 1098.44 406.37 1097.26 386.873C1095.89 365.598 1094.35 360.56 1086.53 352.975C1081.26 347.819 1075.8 343.671 1070.65 340.945L1066.56 338.811L1067.09 341.715Z" fill="black"/>
<path d="M1466.32 348.922C1463.69 351.549 1463.23 352.636 1463.23 356.079C1463.23 362.058 1466.5 365.773 1471.84 365.773C1477.64 365.773 1480.54 362.964 1481.17 356.894C1481.54 352.455 1481.35 352.002 1478.36 349.012C1474.11 344.754 1470.57 344.663 1466.32 348.922Z" fill="black"/>
<path d="M1438.64 341.629C1436.27 343.721 1435.88 344.557 1435.88 347.207C1435.88 352.995 1441.64 356.761 1446.84 354.32C1454.25 350.973 1452.52 340.722 1444.32 339.536C1441.79 339.188 1441.08 339.467 1438.64 341.629Z" fill="black"/>
<path d="M948.687 350.664C945.428 354.101 939.265 362.694 939.265 363.76C939.265 364.649 975 367.375 986.259 367.375H993.845L991.889 364.768C990.171 362.457 989.578 362.101 986.97 361.746C975.651 360.205 964.214 355.701 956.273 349.656L952.362 346.693L948.687 350.664Z" fill="black"/>
<path d="M1239.25 350.428C1237.23 354.22 1235.04 359.435 1234.98 360.443C1234.98 361.213 1235.28 361.45 1236.05 361.213C1236.58 361.035 1242.68 360.621 1249.5 360.265C1261.77 359.672 1271.01 358.487 1275.1 357.065C1277.12 356.354 1276.82 356.235 1266.63 354.102C1260.76 352.917 1252.46 351.139 1248.14 350.25L1240.26 348.531L1239.25 350.428Z" fill="black"/>
<path d="M1490.9 335.061C1488.5 337.459 1488.36 337.895 1488.65 341.31C1489.16 346.251 1491.27 348.503 1495.48 348.503C1500.06 348.503 1502.38 346.251 1502.89 341.382C1503.18 337.822 1503.04 337.459 1500.64 335.061C1498.82 333.245 1497.44 332.518 1495.77 332.518C1494.1 332.518 1492.72 333.245 1490.9 335.061Z" fill="black"/>
<path d="M1286.95 361.213C1282.69 362.99 1274.63 365.361 1269.77 366.25C1267.75 366.605 1258.63 367.139 1249.5 367.376C1234.86 367.731 1232.43 367.968 1228.94 369.094C1224.37 370.576 1217.5 374.961 1212.4 379.702C1206.95 384.739 1206.95 384.68 1212.64 386.814C1215.31 387.821 1220.7 389.836 1224.61 391.377C1232.31 394.34 1238.24 395.881 1246.36 397.007C1254.66 398.133 1271.72 396.177 1277.12 393.451C1281.86 391.021 1289.09 383.139 1292.94 376.265C1294.66 373.124 1298.39 363.287 1298.39 361.805C1298.39 361.094 1293.41 359.613 1291.4 359.731C1290.86 359.731 1288.85 360.442 1286.95 361.213Z" fill="black"/>
<path d="M807.704 365.421C807.704 365.717 807.171 369.628 806.519 374.192C804.207 390.903 803.911 411.941 805.985 420.475C807.822 428.298 812.978 435.942 819.438 440.387C827.912 446.254 843.261 450.343 853.158 449.454C855.528 449.217 857.484 448.98 857.484 448.921C857.484 448.921 855.528 446.847 853.158 444.358C850.847 441.928 847.646 437.779 846.046 435.172C841.305 427.172 833.127 404.06 830.46 391.081C829.927 388.296 828.801 384.799 828.031 383.259C826.253 379.644 819.675 372.651 815.408 369.806C810.134 366.251 807.704 364.888 807.704 365.421Z" fill="black"/>
<path d="M1103.18 370.516C1103.66 372.531 1104.37 379.761 1104.9 386.635C1105.43 393.45 1106.09 400.917 1106.44 403.228C1108.28 415.733 1115.09 433.215 1119.89 437.719C1128.72 445.897 1145.97 450.697 1159.9 448.801L1162.56 448.445L1158.77 444.889C1152.55 439.023 1146.15 429.541 1142.3 420.355C1141.23 417.748 1139.33 412.058 1138.15 407.673C1131.92 385.213 1130.26 382.368 1119.18 374.901C1114.03 371.464 1107.04 367.908 1103.95 367.197L1102.41 366.782L1103.18 370.516Z" fill="black"/>
<path d="M925.99 372.353C920.242 374.605 912.478 379.524 908.449 383.672L905.9 386.28L907.441 386.873C908.271 387.228 911.352 388.473 914.197 389.658C921.96 392.858 946.376 401.569 951.591 402.992C957.34 404.533 967.414 405.125 972.036 404.177C979.74 402.518 989.045 395.762 996.63 386.161C999.712 382.309 1004.22 374.665 1003.68 374.131C1003.56 373.954 1001.02 374.25 998.171 374.842C991.948 375.968 979.385 375.731 968.303 374.25C957.34 372.768 935.65 370.339 933.339 370.339C932.213 370.398 928.894 371.287 925.99 372.353Z" fill="black"/>
<path d="M1446.54 369.467C1441.56 372.242 1440.93 378.762 1445.43 382.231C1448.83 384.936 1451.99 384.797 1455.38 381.815C1457.67 379.803 1458.07 378.97 1458.07 376.265C1458.07 370.369 1451.75 366.623 1446.54 369.467Z" fill="black"/>
<path d="M1139.09 387.407C1139.98 389.6 1142.95 398.311 1145.2 405.6C1150.12 421.305 1155.15 429.898 1164.93 439.143C1171.69 445.543 1174 447.084 1178.68 448.387C1184.13 449.869 1195.16 449.691 1201.32 448.091C1209.08 446.017 1220.58 440.565 1220.76 438.846C1220.76 438.609 1218.51 437.602 1215.78 436.654C1209.26 434.461 1203.99 431.794 1197.11 427.231C1190.48 422.786 1185.02 417.453 1177.38 407.971C1171.21 400.267 1165.23 394.163 1162.39 392.741C1156.87 389.896 1138.32 385.629 1139.09 387.407Z" fill="black"/>
<path d="M836.386 388.591C836.623 389.243 837.335 391.732 837.986 394.162C840.653 403.821 848.179 421.896 853.157 430.311C856.832 436.593 863.706 443.645 868.447 446.075C874.195 448.92 877.751 449.749 884.803 449.749C892.092 449.749 897.663 448.801 905.011 446.312C909.752 444.712 917.042 440.979 916.508 440.386C916.33 440.267 914.138 439.438 911.53 438.549C900.685 434.756 884.507 421.067 868.625 402.221C860.624 392.621 853.75 389.184 840.061 387.761C836.209 387.406 836.031 387.406 836.386 388.591Z" fill="black"/>
<path d="M1189.94 389.718C1184.79 390.607 1180.34 391.733 1177.32 392.859L1173.94 394.104L1179.1 399.852C1195.39 417.808 1201.32 422.549 1212.88 427.172C1220.99 430.372 1229.06 432.209 1233.32 431.735C1241.74 430.905 1252.64 424.979 1259.93 417.275C1263.96 413.067 1268.23 407.378 1269.18 405.008C1269.47 404.119 1269.23 404.06 1267.52 404.415C1263.78 405.304 1255.49 405.6 1248.97 405.186C1238.12 404.415 1230.65 402.282 1216.61 395.822C1203.87 389.955 1197.23 388.474 1189.94 389.718Z" fill="black"/>
<path d="M882.67 390.785C880.714 391.2 877.158 392.266 874.847 393.155L870.521 394.755L873.069 397.778C879.233 405.185 893.574 417.927 903.767 425.097C908.745 428.535 915.323 431.675 920.301 432.92C924.983 434.105 933.339 433.809 937.783 432.268C942.406 430.668 949.813 426.816 954.08 423.794C958.11 420.949 965.34 414.134 965.34 413.127C965.34 412.83 962.851 412.415 959.888 412.238C953.31 411.882 948.035 410.519 937.724 406.549C929.901 403.585 907.797 394.222 901.93 391.437C899.026 390.074 897.959 389.896 892.448 389.955C889.011 389.955 884.625 390.37 882.67 390.785Z" fill="black"/>
<path d="M1455.37 405.346C1448.61 411.542 1455.84 421.583 1464.31 417.595C1468.82 415.388 1469.83 408.479 1466.02 404.99C1462.75 401.999 1458.87 402.141 1455.37 405.346Z" fill="black"/>
</svg>
